<?xml version="1.0" encoding="utf-8" standalone="no"?>
<!DOCTYPE svg PUBLIC "-//W3C//DTD SVG 1.1//EN"
  "http://www.w3.org/Graphics/SVG/1.1/DTD/svg11.dtd">
<svg xmlns:xlink="http://www.w3.org/1999/xlink" width="855.433825pt" height="570.1815pt" viewBox="0 0 855.433825 570.1815" xmlns="http://www.w3.org/2000/svg" version="1.1">
 <metadata>
  <rdf:RDF xmlns:dc="http://purl.org/dc/elements/1.1/" xmlns:cc="http://creativecommons.org/ns#" xmlns:rdf="http://www.w3.org/1999/02/22-rdf-syntax-ns#">
   <cc:Work>
    <dc:type rdf:resource="http://purl.org/dc/dcmitype/StillImage"/>
    <dc:date>2025-12-25T15:48:56.831452</dc:date>
    <dc:format>image/svg+xml</dc:format>
    <dc:creator>
     <cc:Agent>
      <dc:title>Matplotlib v3.10.8, https://matplotlib.org/</dc:title>
     </cc:Agent>
    </dc:creator>
   </cc:Work>
  </rdf:RDF>
 </metadata>
 <defs>
  <style type="text/css">*{stroke-linejoin: round; stroke-linecap: butt}</style>
 </defs>
 <g id="figure_1">
  <g id="patch_1">
   <path d="M 0 570.1815 
L 855.433825 570.1815 
L 855.433825 0 
L 0 0 
z
" style="fill: #ffffff"/>
  </g>
  <g id="axes_1">
   <g id="patch_2">
    <path d="M 124.646875 534.973375 
L 826.258304 534.973375 
L 826.258304 38.425375 
L 124.646875 38.425375 
z
" style="fill: #eaeaf2"/>
   </g>
   <g id="matplotlib.axis_1">
    <g id="xtick_1">
     <g id="line2d_1">
      <path d="M 124.646875 534.973375 
L 124.646875 38.425375 
" clip-path="url(#p32f6ab7ef9)" style="fill: none; stroke: #ffffff; stroke-width: 0.8; stroke-linecap: round"/>
     </g>
     <g id="line2d_2"/>
     <g id="text_1">
      <!-- 0 -->
      <g style="fill: #262626" transform="translate(121.866406 545.72025) scale(0.1 -0.1)">
       <defs>
        <path id="LiberationSans-30" d="M 3309 2203 
Q 3309 1100 2920 518 
Q 2531 -63 1772 -63 
Q 1013 -63 631 515 
Q 250 1094 250 2203 
Q 250 3338 620 3903 
Q 991 4469 1791 4469 
Q 2569 4469 2939 3897 
Q 3309 3325 3309 2203 
z
M 2738 2203 
Q 2738 3156 2517 3584 
Q 2297 4013 1791 4013 
Q 1272 4013 1045 3591 
Q 819 3169 819 2203 
Q 819 1266 1048 831 
Q 1278 397 1778 397 
Q 2275 397 2506 840 
Q 2738 1284 2738 2203 
z
" transform="scale(0.015625)"/>
       </defs>
       <use xlink:href="#LiberationSans-30"/>
      </g>
     </g>
    </g>
    <g id="xtick_2">
     <g id="line2d_3">
      <path d="M 224.782073 534.973375 
L 224.782073 38.425375 
" clip-path="url(#p32f6ab7ef9)" style="fill: none; stroke: #ffffff; stroke-width: 0.8; stroke-linecap: round"/>
     </g>
     <g id="line2d_4"/>
     <g id="text_2">
      <!-- 100 -->
      <g style="fill: #262626" transform="translate(216.440667 545.72025) scale(0.1 -0.1)">
       <defs>
        <path id="LiberationSans-31" d="M 488 0 
L 488 478 
L 1609 478 
L 1609 3866 
L 616 3156 
L 616 3688 
L 1656 4403 
L 2175 4403 
L 2175 478 
L 3247 478 
L 3247 0 
L 488 0 
z
" transform="scale(0.015625)"/>
       </defs>
       <use xlink:href="#LiberationSans-31"/>
       <use xlink:href="#LiberationSans-30" transform="translate(55.615234 0)"/>
       <use xlink:href="#LiberationSans-30" transform="translate(111.230469 0)"/>
      </g>
     </g>
    </g>
    <g id="xtick_3">
     <g id="line2d_5">
      <path d="M 324.917272 534.973375 
L 324.917272 38.425375 
" clip-path="url(#p32f6ab7ef9)" style="fill: none; stroke: #ffffff; stroke-width: 0.8; stroke-linecap: round"/>
     </g>
     <g id="line2d_6"/>
     <g id="text_3">
      <!-- 200 -->
      <g style="fill: #262626" transform="translate(316.575865 545.72025) scale(0.1 -0.1)">
       <defs>
        <path id="LiberationSans-32" d="M 322 0 
L 322 397 
Q 481 763 711 1042 
Q 941 1322 1194 1548 
Q 1447 1775 1695 1969 
Q 1944 2163 2144 2356 
Q 2344 2550 2467 2762 
Q 2591 2975 2591 3244 
Q 2591 3606 2378 3806 
Q 2166 4006 1788 4006 
Q 1428 4006 1195 3811 
Q 963 3616 922 3263 
L 347 3316 
Q 409 3844 795 4156 
Q 1181 4469 1788 4469 
Q 2453 4469 2811 4155 
Q 3169 3841 3169 3263 
Q 3169 3006 3051 2753 
Q 2934 2500 2703 2247 
Q 2472 1994 1819 1463 
Q 1459 1169 1246 933 
Q 1034 697 941 478 
L 3238 478 
L 3238 0 
L 322 0 
z
" transform="scale(0.015625)"/>
       </defs>
       <use xlink:href="#LiberationSans-32"/>
       <use xlink:href="#LiberationSans-30" transform="translate(55.615234 0)"/>
       <use xlink:href="#LiberationSans-30" transform="translate(111.230469 0)"/>
      </g>
     </g>
    </g>
    <g id="xtick_4">
     <g id="line2d_7">
      <path d="M 425.05247 534.973375 
L 425.05247 38.425375 
" clip-path="url(#p32f6ab7ef9)" style="fill: none; stroke: #ffffff; stroke-width: 0.8; stroke-linecap: round"/>
     </g>
     <g id="line2d_8"/>
     <g id="text_4">
      <!-- 300 -->
      <g style="fill: #262626" transform="translate(416.711064 545.72025) scale(0.1 -0.1)">
       <defs>
        <path id="LiberationSans-33" d="M 3278 1216 
Q 3278 606 2890 271 
Q 2503 -63 1784 -63 
Q 1116 -63 717 239 
Q 319 541 244 1131 
L 825 1184 
Q 938 403 1784 403 
Q 2209 403 2451 612 
Q 2694 822 2694 1234 
Q 2694 1594 2417 1795 
Q 2141 1997 1619 1997 
L 1300 1997 
L 1300 2484 
L 1606 2484 
Q 2069 2484 2323 2686 
Q 2578 2888 2578 3244 
Q 2578 3597 2370 3801 
Q 2163 4006 1753 4006 
Q 1381 4006 1151 3815 
Q 922 3625 884 3278 
L 319 3322 
Q 381 3863 767 4166 
Q 1153 4469 1759 4469 
Q 2422 4469 2789 4161 
Q 3156 3853 3156 3303 
Q 3156 2881 2920 2617 
Q 2684 2353 2234 2259 
L 2234 2247 
Q 2728 2194 3003 1916 
Q 3278 1638 3278 1216 
z
" transform="scale(0.015625)"/>
       </defs>
       <use xlink:href="#LiberationSans-33"/>
       <use xlink:href="#LiberationSans-30" transform="translate(55.615234 0)"/>
       <use xlink:href="#LiberationSans-30" transform="translate(111.230469 0)"/>
      </g>
     </g>
    </g>
    <g id="xtick_5">
     <g id="line2d_9">
      <path d="M 525.187668 534.973375 
L 525.187668 38.425375 
" clip-path="url(#p32f6ab7ef9)" style="fill: none; stroke: #ffffff; stroke-width: 0.8; stroke-linecap: round"/>
     </g>
     <g id="line2d_10"/>
     <g id="text_5">
      <!-- 400 -->
      <g style="fill: #262626" transform="translate(516.846262 545.72025) scale(0.1 -0.1)">
       <defs>
        <path id="LiberationSans-34" d="M 2753 997 
L 2753 0 
L 2222 0 
L 2222 997 
L 147 997 
L 147 1434 
L 2163 4403 
L 2753 4403 
L 2753 1441 
L 3372 1441 
L 3372 997 
L 2753 997 
z
M 2222 3769 
Q 2216 3750 2134 3603 
Q 2053 3456 2013 3397 
L 884 1734 
L 716 1503 
L 666 1441 
L 2222 1441 
L 2222 3769 
z
" transform="scale(0.015625)"/>
       </defs>
       <use xlink:href="#LiberationSans-34"/>
       <use xlink:href="#LiberationSans-30" transform="translate(55.615234 0)"/>
       <use xlink:href="#LiberationSans-30" transform="translate(111.230469 0)"/>
      </g>
     </g>
    </g>
    <g id="xtick_6">
     <g id="line2d_11">
      <path d="M 625.322867 534.973375 
L 625.322867 38.425375 
" clip-path="url(#p32f6ab7ef9)" style="fill: none; stroke: #ffffff; stroke-width: 0.8; stroke-linecap: round"/>
     </g>
     <g id="line2d_12"/>
     <g id="text_6">
      <!-- 500 -->
      <g style="fill: #262626" transform="translate(616.981461 545.72025) scale(0.1 -0.1)">
       <defs>
        <path id="LiberationSans-35" d="M 3291 1434 
Q 3291 738 2877 337 
Q 2463 -63 1728 -63 
Q 1113 -63 734 206 
Q 356 475 256 984 
L 825 1050 
Q 1003 397 1741 397 
Q 2194 397 2450 670 
Q 2706 944 2706 1422 
Q 2706 1838 2448 2094 
Q 2191 2350 1753 2350 
Q 1525 2350 1328 2278 
Q 1131 2206 934 2034 
L 384 2034 
L 531 4403 
L 3034 4403 
L 3034 3925 
L 1044 3925 
L 959 2528 
Q 1325 2809 1869 2809 
Q 2519 2809 2905 2428 
Q 3291 2047 3291 1434 
z
" transform="scale(0.015625)"/>
       </defs>
       <use xlink:href="#LiberationSans-35"/>
       <use xlink:href="#LiberationSans-30" transform="translate(55.615234 0)"/>
       <use xlink:href="#LiberationSans-30" transform="translate(111.230469 0)"/>
      </g>
     </g>
    </g>
    <g id="xtick_7">
     <g id="line2d_13">
      <path d="M 725.458065 534.973375 
L 725.458065 38.425375 
" clip-path="url(#p32f6ab7ef9)" style="fill: none; stroke: #ffffff; stroke-width: 0.8; stroke-linecap: round"/>
     </g>
     <g id="line2d_14"/>
     <g id="text_7">
      <!-- 600 -->
      <g style="fill: #262626" transform="translate(717.116659 545.72025) scale(0.1 -0.1)">
       <defs>
        <path id="LiberationSans-36" d="M 3278 1441 
Q 3278 744 2900 340 
Q 2522 -63 1856 -63 
Q 1113 -63 719 490 
Q 325 1044 325 2100 
Q 325 3244 734 3856 
Q 1144 4469 1900 4469 
Q 2897 4469 3156 3572 
L 2619 3475 
Q 2453 4013 1894 4013 
Q 1413 4013 1148 3564 
Q 884 3116 884 2266 
Q 1038 2550 1316 2698 
Q 1594 2847 1953 2847 
Q 2563 2847 2920 2465 
Q 3278 2084 3278 1441 
z
M 2706 1416 
Q 2706 1894 2472 2153 
Q 2238 2413 1819 2413 
Q 1425 2413 1183 2183 
Q 941 1953 941 1550 
Q 941 1041 1192 716 
Q 1444 391 1838 391 
Q 2244 391 2475 664 
Q 2706 938 2706 1416 
z
" transform="scale(0.015625)"/>
       </defs>
       <use xlink:href="#LiberationSans-36"/>
       <use xlink:href="#LiberationSans-30" transform="translate(55.615234 0)"/>
       <use xlink:href="#LiberationSans-30" transform="translate(111.230469 0)"/>
      </g>
     </g>
    </g>
    <g id="xtick_8">
     <g id="line2d_15">
      <path d="M 825.593264 534.973375 
L 825.593264 38.425375 
" clip-path="url(#p32f6ab7ef9)" style="fill: none; stroke: #ffffff; stroke-width: 0.8; stroke-linecap: round"/>
     </g>
     <g id="line2d_16"/>
     <g id="text_8">
      <!-- 700 -->
      <g style="fill: #262626" transform="translate(817.251857 545.72025) scale(0.1 -0.1)">
       <defs>
        <path id="LiberationSans-37" d="M 3238 3947 
Q 2563 2916 2284 2331 
Q 2006 1747 1867 1178 
Q 1728 609 1728 0 
L 1141 0 
Q 1141 844 1498 1776 
Q 1856 2709 2694 3925 
L 328 3925 
L 328 4403 
L 3238 4403 
L 3238 3947 
z
" transform="scale(0.015625)"/>
       </defs>
       <use xlink:href="#LiberationSans-37"/>
       <use xlink:href="#LiberationSans-30" transform="translate(55.615234 0)"/>
       <use xlink:href="#LiberationSans-30" transform="translate(111.230469 0)"/>
      </g>
     </g>
    </g>
    <g id="text_9">
     <!-- Time (ms) -->
     <g style="fill: #262626" transform="translate(448.685089 560.4915) scale(0.12 -0.12)">
      <defs>
       <path id="LiberationSans-54" d="M 2250 3916 
L 2250 0 
L 1656 0 
L 1656 3916 
L 144 3916 
L 144 4403 
L 3763 4403 
L 3763 3916 
L 2250 3916 
z
" transform="scale(0.015625)"/>
       <path id="LiberationSans-69" d="M 428 4100 
L 428 4638 
L 991 4638 
L 991 4100 
L 428 4100 
z
M 428 0 
L 428 3381 
L 991 3381 
L 991 0 
L 428 0 
z
" transform="scale(0.015625)"/>
       <path id="LiberationSans-6d" d="M 2400 0 
L 2400 2144 
Q 2400 2634 2265 2821 
Q 2131 3009 1781 3009 
Q 1422 3009 1212 2734 
Q 1003 2459 1003 1959 
L 1003 0 
L 444 0 
L 444 2659 
Q 444 3250 425 3381 
L 956 3381 
Q 959 3366 962 3297 
Q 966 3228 970 3139 
Q 975 3050 981 2803 
L 991 2803 
Q 1172 3163 1406 3303 
Q 1641 3444 1978 3444 
Q 2363 3444 2586 3291 
Q 2809 3138 2897 2803 
L 2906 2803 
Q 3081 3144 3329 3294 
Q 3578 3444 3931 3444 
Q 4444 3444 4676 3166 
Q 4909 2888 4909 2253 
L 4909 0 
L 4353 0 
L 4353 2144 
Q 4353 2634 4218 2821 
Q 4084 3009 3734 3009 
Q 3366 3009 3161 2736 
Q 2956 2463 2956 1959 
L 2956 0 
L 2400 0 
z
" transform="scale(0.015625)"/>
       <path id="LiberationSans-65" d="M 863 1572 
Q 863 991 1103 675 
Q 1344 359 1806 359 
Q 2172 359 2392 506 
Q 2613 653 2691 878 
L 3184 738 
Q 2881 -63 1806 -63 
Q 1056 -63 664 384 
Q 272 831 272 1713 
Q 272 2550 664 2997 
Q 1056 3444 1784 3444 
Q 3275 3444 3275 1647 
L 3275 1572 
L 863 1572 
z
M 2694 2003 
Q 2647 2538 2422 2783 
Q 2197 3028 1775 3028 
Q 1366 3028 1127 2754 
Q 888 2481 869 2003 
L 2694 2003 
z
" transform="scale(0.015625)"/>
       <path id="LiberationSans-20" transform="scale(0.015625)"/>
       <path id="LiberationSans-28" d="M 397 1663 
Q 397 2566 680 3284 
Q 963 4003 1550 4638 
L 2094 4638 
Q 1509 3988 1236 3256 
Q 963 2525 963 1656 
Q 963 791 1233 62 
Q 1503 -666 2094 -1325 
L 1550 -1325 
Q 959 -688 678 32 
Q 397 753 397 1650 
L 397 1663 
z
" transform="scale(0.015625)"/>
       <path id="LiberationSans-73" d="M 2969 934 
Q 2969 456 2608 196 
Q 2247 -63 1597 -63 
Q 966 -63 623 145 
Q 281 353 178 794 
L 675 891 
Q 747 619 972 492 
Q 1197 366 1597 366 
Q 2025 366 2223 497 
Q 2422 628 2422 891 
Q 2422 1091 2284 1216 
Q 2147 1341 1841 1422 
L 1438 1528 
Q 953 1653 748 1773 
Q 544 1894 428 2066 
Q 313 2238 313 2488 
Q 313 2950 642 3192 
Q 972 3434 1603 3434 
Q 2163 3434 2492 3237 
Q 2822 3041 2909 2606 
L 2403 2544 
Q 2356 2769 2151 2889 
Q 1947 3009 1603 3009 
Q 1222 3009 1040 2893 
Q 859 2778 859 2544 
Q 859 2400 934 2306 
Q 1009 2213 1156 2147 
Q 1303 2081 1775 1966 
Q 2222 1853 2419 1758 
Q 2616 1663 2730 1547 
Q 2844 1431 2906 1279 
Q 2969 1128 2969 934 
z
" transform="scale(0.015625)"/>
       <path id="LiberationSans-29" d="M 1734 1650 
Q 1734 747 1451 28 
Q 1169 -691 581 -1325 
L 38 -1325 
Q 625 -669 897 57 
Q 1169 784 1169 1656 
Q 1169 2528 895 3256 
Q 622 3984 38 4638 
L 581 4638 
Q 1172 4000 1453 3279 
Q 1734 2559 1734 1663 
L 1734 1650 
z
" transform="scale(0.015625)"/>
      </defs>
      <use xlink:href="#LiberationSans-54"/>
      <use xlink:href="#LiberationSans-69" transform="translate(57.333984 0)"/>
      <use xlink:href="#LiberationSans-6d" transform="translate(79.550781 0)"/>
      <use xlink:href="#LiberationSans-65" transform="translate(162.851562 0)"/>
      <use xlink:href="#LiberationSans-20" transform="translate(218.466797 0)"/>
      <use xlink:href="#LiberationSans-28" transform="translate(246.25 0)"/>
      <use xlink:href="#LiberationSans-6d" transform="translate(279.550781 0)"/>
      <use xlink:href="#LiberationSans-73" transform="translate(362.851562 0)"/>
      <use xlink:href="#LiberationSans-29" transform="translate(412.851562 0)"/>
     </g>
    </g>
   </g>
   <g id="matplotlib.axis_2">
    <g id="ytick_1">
     <g id="line2d_17">
      <path d="M 124.646875 76.29768 
L 826.258304 76.29768 
" clip-path="url(#p32f6ab7ef9)" style="fill: none; stroke: #ffffff; stroke-width: 0.8; stroke-linecap: round"/>
     </g>
     <g id="line2d_18"/>
     <g id="text_10">
      <!-- cuda_fp32_intrinsics -->
      <g style="fill: #262626" transform="translate(29.985938 79.921118) scale(0.1 -0.1)">
       <defs>
        <path id="LiberationSans-63" d="M 859 1706 
Q 859 1031 1071 706 
Q 1284 381 1713 381 
Q 2013 381 2214 543 
Q 2416 706 2463 1044 
L 3031 1006 
Q 2966 519 2616 228 
Q 2266 -63 1728 -63 
Q 1019 -63 645 385 
Q 272 834 272 1694 
Q 272 2547 647 2995 
Q 1022 3444 1722 3444 
Q 2241 3444 2583 3175 
Q 2925 2906 3013 2434 
L 2434 2391 
Q 2391 2672 2212 2837 
Q 2034 3003 1706 3003 
Q 1259 3003 1059 2706 
Q 859 2409 859 1706 
z
" transform="scale(0.015625)"/>
        <path id="LiberationSans-75" d="M 981 3381 
L 981 1238 
Q 981 903 1047 718 
Q 1113 534 1256 453 
Q 1400 372 1678 372 
Q 2084 372 2318 650 
Q 2553 928 2553 1422 
L 2553 3381 
L 3116 3381 
L 3116 722 
Q 3116 131 3134 0 
L 2603 0 
Q 2600 16 2597 84 
Q 2594 153 2589 242 
Q 2584 331 2578 578 
L 2569 578 
Q 2375 228 2120 82 
Q 1866 -63 1488 -63 
Q 931 -63 673 214 
Q 416 491 416 1128 
L 416 3381 
L 981 3381 
z
" transform="scale(0.015625)"/>
        <path id="LiberationSans-64" d="M 2566 544 
Q 2409 219 2151 78 
Q 1894 -63 1513 -63 
Q 872 -63 570 368 
Q 269 800 269 1675 
Q 269 3444 1513 3444 
Q 1897 3444 2153 3303 
Q 2409 3163 2566 2856 
L 2572 2856 
L 2566 3234 
L 2566 4638 
L 3128 4638 
L 3128 697 
Q 3128 169 3147 0 
L 2609 0 
Q 2600 50 2589 231 
Q 2578 413 2578 544 
L 2566 544 
z
M 859 1694 
Q 859 984 1046 678 
Q 1234 372 1656 372 
Q 2134 372 2350 703 
Q 2566 1034 2566 1731 
Q 2566 2403 2350 2715 
Q 2134 3028 1663 3028 
Q 1238 3028 1048 2714 
Q 859 2400 859 1694 
z
" transform="scale(0.015625)"/>
        <path id="LiberationSans-61" d="M 1294 -63 
Q 784 -63 528 206 
Q 272 475 272 944 
Q 272 1469 617 1750 
Q 963 2031 1731 2050 
L 2491 2063 
L 2491 2247 
Q 2491 2659 2316 2837 
Q 2141 3016 1766 3016 
Q 1388 3016 1216 2887 
Q 1044 2759 1009 2478 
L 422 2531 
Q 566 3444 1778 3444 
Q 2416 3444 2737 3151 
Q 3059 2859 3059 2306 
L 3059 850 
Q 3059 600 3125 473 
Q 3191 347 3375 347 
Q 3456 347 3559 369 
L 3559 19 
Q 3347 -31 3125 -31 
Q 2813 -31 2670 133 
Q 2528 297 2509 647 
L 2491 647 
Q 2275 259 1989 98 
Q 1703 -63 1294 -63 
z
M 1422 359 
Q 1731 359 1972 500 
Q 2213 641 2352 886 
Q 2491 1131 2491 1391 
L 2491 1669 
L 1875 1656 
Q 1478 1650 1273 1575 
Q 1069 1500 959 1344 
Q 850 1188 850 934 
Q 850 659 998 509 
Q 1147 359 1422 359 
z
" transform="scale(0.015625)"/>
        <path id="LiberationSans-5f" d="M -97 -1272 
L -97 -866 
L 3631 -866 
L 3631 -1272 
L -97 -1272 
z
" transform="scale(0.015625)"/>
        <path id="LiberationSans-66" d="M 1128 2972 
L 1128 0 
L 566 0 
L 566 2972 
L 91 2972 
L 91 3381 
L 566 3381 
L 566 3763 
Q 566 4225 769 4428 
Q 972 4631 1391 4631 
Q 1625 4631 1788 4594 
L 1788 4166 
Q 1647 4191 1538 4191 
Q 1322 4191 1225 4081 
Q 1128 3972 1128 3684 
L 1128 3381 
L 1788 3381 
L 1788 2972 
L 1128 2972 
z
" transform="scale(0.015625)"/>
        <path id="LiberationSans-70" d="M 3291 1706 
Q 3291 -63 2047 -63 
Q 1266 -63 997 525 
L 981 525 
Q 994 500 994 -6 
L 994 -1328 
L 431 -1328 
L 431 2691 
Q 431 3213 413 3381 
L 956 3381 
Q 959 3369 965 3292 
Q 972 3216 980 3056 
Q 988 2897 988 2838 
L 1000 2838 
Q 1150 3150 1397 3295 
Q 1644 3441 2047 3441 
Q 2672 3441 2981 3022 
Q 3291 2603 3291 1706 
z
M 2700 1694 
Q 2700 2400 2509 2703 
Q 2319 3006 1903 3006 
Q 1569 3006 1380 2865 
Q 1191 2725 1092 2426 
Q 994 2128 994 1650 
Q 994 984 1206 668 
Q 1419 353 1897 353 
Q 2316 353 2508 661 
Q 2700 969 2700 1694 
z
" transform="scale(0.015625)"/>
        <path id="LiberationSans-6e" d="M 2578 0 
L 2578 2144 
Q 2578 2478 2512 2662 
Q 2447 2847 2303 2928 
Q 2159 3009 1881 3009 
Q 1475 3009 1240 2731 
Q 1006 2453 1006 1959 
L 1006 0 
L 444 0 
L 444 2659 
Q 444 3250 425 3381 
L 956 3381 
Q 959 3366 962 3297 
Q 966 3228 970 3139 
Q 975 3050 981 2803 
L 991 2803 
Q 1184 3153 1439 3298 
Q 1694 3444 2072 3444 
Q 2628 3444 2886 3167 
Q 3144 2891 3144 2253 
L 3144 0 
L 2578 0 
z
" transform="scale(0.015625)"/>
        <path id="LiberationSans-74" d="M 1731 25 
Q 1453 -50 1163 -50 
Q 488 -50 488 716 
L 488 2972 
L 97 2972 
L 97 3381 
L 509 3381 
L 675 4138 
L 1050 4138 
L 1050 3381 
L 1675 3381 
L 1675 2972 
L 1050 2972 
L 1050 838 
Q 1050 594 1129 495 
Q 1209 397 1406 397 
Q 1519 397 1731 441 
L 1731 25 
z
" transform="scale(0.015625)"/>
        <path id="LiberationSans-72" d="M 444 0 
L 444 2594 
Q 444 2950 425 3381 
L 956 3381 
Q 981 2806 981 2691 
L 994 2691 
Q 1128 3125 1303 3284 
Q 1478 3444 1797 3444 
Q 1909 3444 2025 3413 
L 2025 2897 
Q 1913 2928 1725 2928 
Q 1375 2928 1190 2626 
Q 1006 2325 1006 1763 
L 1006 0 
L 444 0 
z
" transform="scale(0.015625)"/>
       </defs>
       <use xlink:href="#LiberationSans-63"/>
       <use xlink:href="#LiberationSans-75" transform="translate(50 0)"/>
       <use xlink:href="#LiberationSans-64" transform="translate(105.615234 0)"/>
       <use xlink:href="#LiberationSans-61" transform="translate(161.230469 0)"/>
       <use xlink:href="#LiberationSans-5f" transform="translate(216.845703 0)"/>
       <use xlink:href="#LiberationSans-66" transform="translate(272.460938 0)"/>
       <use xlink:href="#LiberationSans-70" transform="translate(300.244141 0)"/>
       <use xlink:href="#LiberationSans-33" transform="translate(355.859375 0)"/>
       <use xlink:href="#LiberationSans-32" transform="translate(411.474609 0)"/>
       <use xlink:href="#LiberationSans-5f" transform="translate(467.089844 0)"/>
       <use xlink:href="#LiberationSans-69" transform="translate(522.705078 0)"/>
       <use xlink:href="#LiberationSans-6e" transform="translate(544.921875 0)"/>
       <use xlink:href="#LiberationSans-74" transform="translate(600.537109 0)"/>
       <use xlink:href="#LiberationSans-72" transform="translate(628.320312 0)"/>
       <use xlink:href="#LiberationSans-69" transform="translate(661.621094 0)"/>
       <use xlink:href="#LiberationSans-6e" transform="translate(683.837891 0)"/>
       <use xlink:href="#LiberationSans-73" transform="translate(739.453125 0)"/>
       <use xlink:href="#LiberationSans-69" transform="translate(789.453125 0)"/>
       <use xlink:href="#LiberationSans-63" transform="translate(811.669922 0)"/>
       <use xlink:href="#LiberationSans-73" transform="translate(861.669922 0)"/>
      </g>
     </g>
    </g>
    <g id="ytick_2">
     <g id="line2d_19">
      <path d="M 124.646875 114.552534 
L 826.258304 114.552534 
" clip-path="url(#p32f6ab7ef9)" style="fill: none; stroke: #ffffff; stroke-width: 0.8; stroke-linecap: round"/>
     </g>
     <g id="line2d_20"/>
     <g id="text_11">
      <!-- cuda_fp32 -->
      <g style="fill: #262626" transform="translate(74.442188 118.175971) scale(0.1 -0.1)">
       <use xlink:href="#LiberationSans-63"/>
       <use xlink:href="#LiberationSans-75" transform="translate(50 0)"/>
       <use xlink:href="#LiberationSans-64" transform="translate(105.615234 0)"/>
       <use xlink:href="#LiberationSans-61" transform="translate(161.230469 0)"/>
       <use xlink:href="#LiberationSans-5f" transform="translate(216.845703 0)"/>
       <use xlink:href="#LiberationSans-66" transform="translate(272.460938 0)"/>
       <use xlink:href="#LiberationSans-70" transform="translate(300.244141 0)"/>
       <use xlink:href="#LiberationSans-33" transform="translate(355.859375 0)"/>
       <use xlink:href="#LiberationSans-32" transform="translate(411.474609 0)"/>
      </g>
     </g>
    </g>
    <g id="ytick_3">
     <g id="line2d_21">
      <path d="M 124.646875 152.807387 
L 826.258304 152.807387 
" clip-path="url(#p32f6ab7ef9)" style="fill: none; stroke: #ffffff; stroke-width: 0.8; stroke-linecap: round"/>
     </g>
     <g id="line2d_22"/>
     <g id="text_12">
      <!-- numba_cuda_fp32 -->
      <g style="fill: #262626" transform="translate(38.307812 156.430825) scale(0.1 -0.1)">
       <defs>
        <path id="LiberationSans-62" d="M 3291 1706 
Q 3291 -63 2047 -63 
Q 1663 -63 1408 76 
Q 1153 216 994 525 
L 988 525 
Q 988 428 975 229 
Q 963 31 956 0 
L 413 0 
Q 431 169 431 697 
L 431 4638 
L 994 4638 
L 994 3316 
Q 994 3113 981 2838 
L 994 2838 
Q 1150 3163 1408 3303 
Q 1666 3444 2047 3444 
Q 2688 3444 2989 3012 
Q 3291 2581 3291 1706 
z
M 2700 1688 
Q 2700 2397 2512 2703 
Q 2325 3009 1903 3009 
Q 1428 3009 1211 2684 
Q 994 2359 994 1653 
Q 994 988 1206 670 
Q 1419 353 1897 353 
Q 2322 353 2511 667 
Q 2700 981 2700 1688 
z
" transform="scale(0.015625)"/>
       </defs>
       <use xlink:href="#LiberationSans-6e"/>
       <use xlink:href="#LiberationSans-75" transform="translate(55.615234 0)"/>
       <use xlink:href="#LiberationSans-6d" transform="translate(111.230469 0)"/>
       <use xlink:href="#LiberationSans-62" transform="translate(194.53125 0)"/>
       <use xlink:href="#LiberationSans-61" transform="translate(250.146484 0)"/>
       <use xlink:href="#LiberationSans-5f" transform="translate(305.761719 0)"/>
       <use xlink:href="#LiberationSans-63" transform="translate(361.376953 0)"/>
       <use xlink:href="#LiberationSans-75" transform="translate(411.376953 0)"/>
       <use xlink:href="#LiberationSans-64" transform="translate(466.992188 0)"/>
       <use xlink:href="#LiberationSans-61" transform="translate(522.607422 0)"/>
       <use xlink:href="#LiberationSans-5f" transform="translate(578.222656 0)"/>
       <use xlink:href="#LiberationSans-66" transform="translate(633.837891 0)"/>
       <use xlink:href="#LiberationSans-70" transform="translate(661.621094 0)"/>
       <use xlink:href="#LiberationSans-33" transform="translate(717.236328 0)"/>
       <use xlink:href="#LiberationSans-32" transform="translate(772.851562 0)"/>
      </g>
     </g>
    </g>
    <g id="ytick_4">
     <g id="line2d_23">
      <path d="M 124.646875 191.062241 
L 826.258304 191.062241 
" clip-path="url(#p32f6ab7ef9)" style="fill: none; stroke: #ffffff; stroke-width: 0.8; stroke-linecap: round"/>
     </g>
     <g id="line2d_24"/>
     <g id="text_13">
      <!-- cuda_fp64 -->
      <g style="fill: #262626" transform="translate(74.442188 194.685678) scale(0.1 -0.1)">
       <use xlink:href="#LiberationSans-63"/>
       <use xlink:href="#LiberationSans-75" transform="translate(50 0)"/>
       <use xlink:href="#LiberationSans-64" transform="translate(105.615234 0)"/>
       <use xlink:href="#LiberationSans-61" transform="translate(161.230469 0)"/>
       <use xlink:href="#LiberationSans-5f" transform="translate(216.845703 0)"/>
       <use xlink:href="#LiberationSans-66" transform="translate(272.460938 0)"/>
       <use xlink:href="#LiberationSans-70" transform="translate(300.244141 0)"/>
       <use xlink:href="#LiberationSans-36" transform="translate(355.859375 0)"/>
       <use xlink:href="#LiberationSans-34" transform="translate(411.474609 0)"/>
      </g>
     </g>
    </g>
    <g id="ytick_5">
     <g id="line2d_25">
      <path d="M 124.646875 229.317095 
L 826.258304 229.317095 
" clip-path="url(#p32f6ab7ef9)" style="fill: none; stroke: #ffffff; stroke-width: 0.8; stroke-linecap: round"/>
     </g>
     <g id="line2d_26"/>
     <g id="text_14">
      <!-- numba_cuda_fp64 -->
      <g style="fill: #262626" transform="translate(38.307812 232.940532) scale(0.1 -0.1)">
       <use xlink:href="#LiberationSans-6e"/>
       <use xlink:href="#LiberationSans-75" transform="translate(55.615234 0)"/>
       <use xlink:href="#LiberationSans-6d" transform="translate(111.230469 0)"/>
       <use xlink:href="#LiberationSans-62" transform="translate(194.53125 0)"/>
       <use xlink:href="#LiberationSans-61" transform="translate(250.146484 0)"/>
       <use xlink:href="#LiberationSans-5f" transform="translate(305.761719 0)"/>
       <use xlink:href="#LiberationSans-63" transform="translate(361.376953 0)"/>
       <use xlink:href="#LiberationSans-75" transform="translate(411.376953 0)"/>
       <use xlink:href="#LiberationSans-64" transform="translate(466.992188 0)"/>
       <use xlink:href="#LiberationSans-61" transform="translate(522.607422 0)"/>
       <use xlink:href="#LiberationSans-5f" transform="translate(578.222656 0)"/>
       <use xlink:href="#LiberationSans-66" transform="translate(633.837891 0)"/>
       <use xlink:href="#LiberationSans-70" transform="translate(661.621094 0)"/>
       <use xlink:href="#LiberationSans-36" transform="translate(717.236328 0)"/>
       <use xlink:href="#LiberationSans-34" transform="translate(772.851562 0)"/>
      </g>
     </g>
    </g>
    <g id="ytick_6">
     <g id="line2d_27">
      <path d="M 124.646875 267.571948 
L 826.258304 267.571948 
" clip-path="url(#p32f6ab7ef9)" style="fill: none; stroke: #ffffff; stroke-width: 0.8; stroke-linecap: round"/>
     </g>
     <g id="line2d_28"/>
     <g id="text_15">
      <!-- rust_parallel_chunks -->
      <g style="fill: #262626" transform="translate(29.434375 271.195386) scale(0.1 -0.1)">
       <defs>
        <path id="LiberationSans-6c" d="M 431 0 
L 431 4638 
L 994 4638 
L 994 0 
L 431 0 
z
" transform="scale(0.015625)"/>
        <path id="LiberationSans-68" d="M 991 2803 
Q 1172 3134 1426 3289 
Q 1681 3444 2072 3444 
Q 2622 3444 2883 3170 
Q 3144 2897 3144 2253 
L 3144 0 
L 2578 0 
L 2578 2144 
Q 2578 2500 2512 2673 
Q 2447 2847 2297 2928 
Q 2147 3009 1881 3009 
Q 1484 3009 1245 2734 
Q 1006 2459 1006 1994 
L 1006 0 
L 444 0 
L 444 4638 
L 1006 4638 
L 1006 3431 
Q 1006 3241 995 3037 
Q 984 2834 981 2803 
L 991 2803 
z
" transform="scale(0.015625)"/>
        <path id="LiberationSans-6b" d="M 2550 0 
L 1406 1544 
L 994 1203 
L 994 0 
L 431 0 
L 431 4638 
L 994 4638 
L 994 1741 
L 2478 3381 
L 3138 3381 
L 1766 1928 
L 3209 0 
L 2550 0 
z
" transform="scale(0.015625)"/>
       </defs>
       <use xlink:href="#LiberationSans-72"/>
       <use xlink:href="#LiberationSans-75" transform="translate(33.300781 0)"/>
       <use xlink:href="#LiberationSans-73" transform="translate(88.916016 0)"/>
       <use xlink:href="#LiberationSans-74" transform="translate(138.916016 0)"/>
       <use xlink:href="#LiberationSans-5f" transform="translate(166.699219 0)"/>
       <use xlink:href="#LiberationSans-70" transform="translate(222.314453 0)"/>
       <use xlink:href="#LiberationSans-61" transform="translate(277.929688 0)"/>
       <use xlink:href="#LiberationSans-72" transform="translate(333.544922 0)"/>
       <use xlink:href="#LiberationSans-61" transform="translate(366.845703 0)"/>
       <use xlink:href="#LiberationSans-6c" transform="translate(422.460938 0)"/>
       <use xlink:href="#LiberationSans-6c" transform="translate(444.677734 0)"/>
       <use xlink:href="#LiberationSans-65" transform="translate(466.894531 0)"/>
       <use xlink:href="#LiberationSans-6c" transform="translate(522.509766 0)"/>
       <use xlink:href="#LiberationSans-5f" transform="translate(544.726562 0)"/>
       <use xlink:href="#LiberationSans-63" transform="translate(600.341797 0)"/>
       <use xlink:href="#LiberationSans-68" transform="translate(650.341797 0)"/>
       <use xlink:href="#LiberationSans-75" transform="translate(705.957031 0)"/>
       <use xlink:href="#LiberationSans-6e" transform="translate(761.572266 0)"/>
       <use xlink:href="#LiberationSans-6b" transform="translate(817.1875 0)"/>
       <use xlink:href="#LiberationSans-73" transform="translate(867.1875 0)"/>
      </g>
     </g>
    </g>
    <g id="ytick_7">
     <g id="line2d_29">
      <path d="M 124.646875 305.826802 
L 826.258304 305.826802 
" clip-path="url(#p32f6ab7ef9)" style="fill: none; stroke: #ffffff; stroke-width: 0.8; stroke-linecap: round"/>
     </g>
     <g id="line2d_30"/>
     <g id="text_16">
      <!-- rust_parallel -->
      <g style="fill: #262626" transform="translate(66.678125 309.450239) scale(0.1 -0.1)">
       <use xlink:href="#LiberationSans-72"/>
       <use xlink:href="#LiberationSans-75" transform="translate(33.300781 0)"/>
       <use xlink:href="#LiberationSans-73" transform="translate(88.916016 0)"/>
       <use xlink:href="#LiberationSans-74" transform="translate(138.916016 0)"/>
       <use xlink:href="#LiberationSans-5f" transform="translate(166.699219 0)"/>
       <use xlink:href="#LiberationSans-70" transform="translate(222.314453 0)"/>
       <use xlink:href="#LiberationSans-61" transform="translate(277.929688 0)"/>
       <use xlink:href="#LiberationSans-72" transform="translate(333.544922 0)"/>
       <use xlink:href="#LiberationSans-61" transform="translate(366.845703 0)"/>
       <use xlink:href="#LiberationSans-6c" transform="translate(422.460938 0)"/>
       <use xlink:href="#LiberationSans-6c" transform="translate(444.677734 0)"/>
       <use xlink:href="#LiberationSans-65" transform="translate(466.894531 0)"/>
       <use xlink:href="#LiberationSans-6c" transform="translate(522.509766 0)"/>
      </g>
     </g>
    </g>
    <g id="ytick_8">
     <g id="line2d_31">
      <path d="M 124.646875 344.081655 
L 826.258304 344.081655 
" clip-path="url(#p32f6ab7ef9)" style="fill: none; stroke: #ffffff; stroke-width: 0.8; stroke-linecap: round"/>
     </g>
     <g id="line2d_32"/>
     <g id="text_17">
      <!-- numba_vectorize_parallel -->
      <g style="fill: #262626" transform="translate(7.2 347.705093) scale(0.1 -0.1)">
       <defs>
        <path id="LiberationSans-76" d="M 1916 0 
L 1250 0 
L 22 3381 
L 622 3381 
L 1366 1181 
Q 1406 1056 1581 441 
L 1691 806 
L 1813 1175 
L 2581 3381 
L 3178 3381 
L 1916 0 
z
" transform="scale(0.015625)"/>
        <path id="LiberationSans-6f" d="M 3291 1694 
Q 3291 806 2900 371 
Q 2509 -63 1766 -63 
Q 1025 -63 647 389 
Q 269 841 269 1694 
Q 269 3444 1784 3444 
Q 2559 3444 2925 3017 
Q 3291 2591 3291 1694 
z
M 2700 1694 
Q 2700 2394 2492 2711 
Q 2284 3028 1794 3028 
Q 1300 3028 1079 2704 
Q 859 2381 859 1694 
Q 859 1025 1076 689 
Q 1294 353 1759 353 
Q 2266 353 2483 678 
Q 2700 1003 2700 1694 
z
" transform="scale(0.015625)"/>
        <path id="LiberationSans-7a" d="M 259 0 
L 259 428 
L 2150 2947 
L 366 2947 
L 366 3381 
L 2816 3381 
L 2816 2953 
L 922 434 
L 2881 434 
L 2881 0 
L 259 0 
z
" transform="scale(0.015625)"/>
       </defs>
       <use xlink:href="#LiberationSans-6e"/>
       <use xlink:href="#LiberationSans-75" transform="translate(55.615234 0)"/>
       <use xlink:href="#LiberationSans-6d" transform="translate(111.230469 0)"/>
       <use xlink:href="#LiberationSans-62" transform="translate(194.53125 0)"/>
       <use xlink:href="#LiberationSans-61" transform="translate(250.146484 0)"/>
       <use xlink:href="#LiberationSans-5f" transform="translate(305.761719 0)"/>
       <use xlink:href="#LiberationSans-76" transform="translate(361.376953 0)"/>
       <use xlink:href="#LiberationSans-65" transform="translate(411.376953 0)"/>
       <use xlink:href="#LiberationSans-63" transform="translate(466.992188 0)"/>
       <use xlink:href="#LiberationSans-74" transform="translate(516.992188 0)"/>
       <use xlink:href="#LiberationSans-6f" transform="translate(544.775391 0)"/>
       <use xlink:href="#LiberationSans-72" transform="translate(600.390625 0)"/>
       <use xlink:href="#LiberationSans-69" transform="translate(633.691406 0)"/>
       <use xlink:href="#LiberationSans-7a" transform="translate(655.908203 0)"/>
       <use xlink:href="#LiberationSans-65" transform="translate(705.908203 0)"/>
       <use xlink:href="#LiberationSans-5f" transform="translate(761.523438 0)"/>
       <use xlink:href="#LiberationSans-70" transform="translate(817.138672 0)"/>
       <use xlink:href="#LiberationSans-61" transform="translate(872.753906 0)"/>
       <use xlink:href="#LiberationSans-72" transform="translate(928.369141 0)"/>
       <use xlink:href="#LiberationSans-61" transform="translate(961.669922 0)"/>
       <use xlink:href="#LiberationSans-6c" transform="translate(1017.285156 0)"/>
       <use xlink:href="#LiberationSans-6c" transform="translate(1039.501953 0)"/>
       <use xlink:href="#LiberationSans-65" transform="translate(1061.71875 0)"/>
       <use xlink:href="#LiberationSans-6c" transform="translate(1117.333984 0)"/>
      </g>
     </g>
    </g>
    <g id="ytick_9">
     <g id="line2d_33">
      <path d="M 124.646875 382.336509 
L 826.258304 382.336509 
" clip-path="url(#p32f6ab7ef9)" style="fill: none; stroke: #ffffff; stroke-width: 0.8; stroke-linecap: round"/>
     </g>
     <g id="line2d_34"/>
     <g id="text_18">
      <!-- numba_parallel -->
      <g style="fill: #262626" transform="translate(52.773438 385.959947) scale(0.1 -0.1)">
       <use xlink:href="#LiberationSans-6e"/>
       <use xlink:href="#LiberationSans-75" transform="translate(55.615234 0)"/>
       <use xlink:href="#LiberationSans-6d" transform="translate(111.230469 0)"/>
       <use xlink:href="#LiberationSans-62" transform="translate(194.53125 0)"/>
       <use xlink:href="#LiberationSans-61" transform="translate(250.146484 0)"/>
       <use xlink:href="#LiberationSans-5f" transform="translate(305.761719 0)"/>
       <use xlink:href="#LiberationSans-70" transform="translate(361.376953 0)"/>
       <use xlink:href="#LiberationSans-61" transform="translate(416.992188 0)"/>
       <use xlink:href="#LiberationSans-72" transform="translate(472.607422 0)"/>
       <use xlink:href="#LiberationSans-61" transform="translate(505.908203 0)"/>
       <use xlink:href="#LiberationSans-6c" transform="translate(561.523438 0)"/>
       <use xlink:href="#LiberationSans-6c" transform="translate(583.740234 0)"/>
       <use xlink:href="#LiberationSans-65" transform="translate(605.957031 0)"/>
       <use xlink:href="#LiberationSans-6c" transform="translate(661.572266 0)"/>
      </g>
     </g>
    </g>
    <g id="ytick_10">
     <g id="line2d_35">
      <path d="M 124.646875 420.591363 
L 826.258304 420.591363 
" clip-path="url(#p32f6ab7ef9)" style="fill: none; stroke: #ffffff; stroke-width: 0.8; stroke-linecap: round"/>
     </g>
     <g id="line2d_36"/>
     <g id="text_19">
      <!-- rust_single -->
      <g style="fill: #262626" transform="translate(72.790625 424.2148) scale(0.1 -0.1)">
       <defs>
        <path id="LiberationSans-67" d="M 1713 -1328 
Q 1159 -1328 831 -1111 
Q 503 -894 409 -494 
L 975 -413 
Q 1031 -647 1223 -773 
Q 1416 -900 1728 -900 
Q 2569 -900 2569 84 
L 2569 628 
L 2563 628 
Q 2403 303 2125 139 
Q 1847 -25 1475 -25 
Q 853 -25 561 387 
Q 269 800 269 1684 
Q 269 2581 583 3007 
Q 897 3434 1538 3434 
Q 1897 3434 2161 3270 
Q 2425 3106 2569 2803 
L 2575 2803 
Q 2575 2897 2587 3128 
Q 2600 3359 2613 3381 
L 3147 3381 
Q 3128 3213 3128 2681 
L 3128 97 
Q 3128 -1328 1713 -1328 
z
M 2569 1691 
Q 2569 2103 2456 2401 
Q 2344 2700 2139 2858 
Q 1934 3016 1675 3016 
Q 1244 3016 1047 2703 
Q 850 2391 850 1691 
Q 850 997 1034 694 
Q 1219 391 1666 391 
Q 1931 391 2137 547 
Q 2344 703 2456 995 
Q 2569 1288 2569 1691 
z
" transform="scale(0.015625)"/>
       </defs>
       <use xlink:href="#LiberationSans-72"/>
       <use xlink:href="#LiberationSans-75" transform="translate(33.300781 0)"/>
       <use xlink:href="#LiberationSans-73" transform="translate(88.916016 0)"/>
       <use xlink:href="#LiberationSans-74" transform="translate(138.916016 0)"/>
       <use xlink:href="#LiberationSans-5f" transform="translate(166.699219 0)"/>
       <use xlink:href="#LiberationSans-73" transform="translate(222.314453 0)"/>
       <use xlink:href="#LiberationSans-69" transform="translate(272.314453 0)"/>
       <use xlink:href="#LiberationSans-6e" transform="translate(294.53125 0)"/>
       <use xlink:href="#LiberationSans-67" transform="translate(350.146484 0)"/>
       <use xlink:href="#LiberationSans-6c" transform="translate(405.761719 0)"/>
       <use xlink:href="#LiberationSans-65" transform="translate(427.978516 0)"/>
      </g>
     </g>
    </g>
    <g id="ytick_11">
     <g id="line2d_37">
      <path d="M 124.646875 458.846216 
L 826.258304 458.846216 
" clip-path="url(#p32f6ab7ef9)" style="fill: none; stroke: #ffffff; stroke-width: 0.8; stroke-linecap: round"/>
     </g>
     <g id="line2d_38"/>
     <g id="text_20">
      <!-- numba_jit -->
      <g style="fill: #262626" transform="translate(77.790625 462.469654) scale(0.1 -0.1)">
       <defs>
        <path id="LiberationSans-6a" d="M 428 4100 
L 428 4638 
L 991 4638 
L 991 4100 
L 428 4100 
z
M 991 -419 
Q 991 -897 803 -1112 
Q 616 -1328 241 -1328 
Q 0 -1328 -156 -1300 
L -156 -866 
L 38 -884 
Q 253 -884 340 -771 
Q 428 -659 428 -334 
L 428 3381 
L 991 3381 
L 991 -419 
z
" transform="scale(0.015625)"/>
       </defs>
       <use xlink:href="#LiberationSans-6e"/>
       <use xlink:href="#LiberationSans-75" transform="translate(55.615234 0)"/>
       <use xlink:href="#LiberationSans-6d" transform="translate(111.230469 0)"/>
       <use xlink:href="#LiberationSans-62" transform="translate(194.53125 0)"/>
       <use xlink:href="#LiberationSans-61" transform="translate(250.146484 0)"/>
       <use xlink:href="#LiberationSans-5f" transform="translate(305.761719 0)"/>
       <use xlink:href="#LiberationSans-6a" transform="translate(361.376953 0)"/>
       <use xlink:href="#LiberationSans-69" transform="translate(383.59375 0)"/>
       <use xlink:href="#LiberationSans-74" transform="translate(405.810547 0)"/>
      </g>
     </g>
    </g>
    <g id="ytick_12">
     <g id="line2d_39">
      <path d="M 124.646875 497.10107 
L 826.258304 497.10107 
" clip-path="url(#p32f6ab7ef9)" style="fill: none; stroke: #ffffff; stroke-width: 0.8; stroke-linecap: round"/>
     </g>
     <g id="line2d_40"/>
     <g id="text_21">
      <!-- numpy_vectorized -->
      <g style="fill: #262626" transform="translate(40 500.724507) scale(0.1 -0.1)">
       <defs>
        <path id="LiberationSans-79" d="M 597 -1328 
Q 366 -1328 209 -1294 
L 209 -872 
Q 328 -891 472 -891 
Q 997 -891 1303 -119 
L 1356 16 
L 16 3381 
L 616 3381 
L 1328 1513 
Q 1344 1469 1366 1408 
Q 1388 1347 1506 1000 
Q 1625 653 1634 613 
L 1853 1228 
L 2594 3381 
L 3188 3381 
L 1888 0 
Q 1678 -541 1497 -805 
Q 1316 -1069 1095 -1198 
Q 875 -1328 597 -1328 
z
" transform="scale(0.015625)"/>
       </defs>
       <use xlink:href="#LiberationSans-6e"/>
       <use xlink:href="#LiberationSans-75" transform="translate(55.615234 0)"/>
       <use xlink:href="#LiberationSans-6d" transform="translate(111.230469 0)"/>
       <use xlink:href="#LiberationSans-70" transform="translate(194.53125 0)"/>
       <use xlink:href="#LiberationSans-79" transform="translate(250.146484 0)"/>
       <use xlink:href="#LiberationSans-5f" transform="translate(300.146484 0)"/>
       <use xlink:href="#LiberationSans-76" transform="translate(355.761719 0)"/>
       <use xlink:href="#LiberationSans-65" transform="translate(405.761719 0)"/>
       <use xlink:href="#LiberationSans-63" transform="translate(461.376953 0)"/>
       <use xlink:href="#LiberationSans-74" transform="translate(511.376953 0)"/>
       <use xlink:href="#LiberationSans-6f" transform="translate(539.160156 0)"/>
       <use xlink:href="#LiberationSans-72" transform="translate(594.775391 0)"/>
       <use xlink:href="#LiberationSans-69" transform="translate(628.076172 0)"/>
       <use xlink:href="#LiberationSans-7a" transform="translate(650.292969 0)"/>
       <use xlink:href="#LiberationSans-65" transform="translate(700.292969 0)"/>
       <use xlink:href="#LiberationSans-64" transform="translate(755.908203 0)"/>
      </g>
     </g>
    </g>
   </g>
   <g id="patch_3">
    <path d="M 124.646875 60.995739 
L 124.852152 60.995739 
L 124.852152 91.599622 
L 124.646875 91.599622 
z
" clip-path="url(#p32f6ab7ef9)" style="fill: #76b900; stroke: #ffffff; stroke-width: 0.5; stroke-linejoin: miter"/>
   </g>
   <g id="patch_4">
    <path d="M 124.646875 99.250592 
L 124.853154 99.250592 
L 124.853154 129.854475 
L 124.646875 129.854475 
z
" clip-path="url(#p32f6ab7ef9)" style="fill: #76b900; stroke: #ffffff; stroke-width: 0.5; stroke-linejoin: miter"/>
   </g>
   <g id="patch_5">
    <path d="M 124.646875 137.505446 
L 127.168157 137.505446 
L 127.168157 168.109329 
L 124.646875 168.109329 
z
" clip-path="url(#p32f6ab7ef9)" style="fill: #76b900; stroke: #ffffff; stroke-width: 0.5; stroke-linejoin: miter"/>
   </g>
   <g id="patch_6">
    <path d="M 124.646875 175.760299 
L 128.760429 175.760299 
L 128.760429 206.364182 
L 124.646875 206.364182 
z
" clip-path="url(#p32f6ab7ef9)" style="fill: #76b900; stroke: #ffffff; stroke-width: 0.5; stroke-linejoin: miter"/>
   </g>
   <g id="patch_7">
    <path d="M 124.646875 214.015153 
L 128.790353 214.015153 
L 128.790353 244.619036 
L 124.646875 244.619036 
z
" clip-path="url(#p32f6ab7ef9)" style="fill: #76b900; stroke: #ffffff; stroke-width: 0.5; stroke-linejoin: miter"/>
   </g>
   <g id="patch_8">
    <path d="M 124.646875 252.270007 
L 137.04936 252.270007 
L 137.04936 282.87389 
L 124.646875 282.87389 
z
" clip-path="url(#p32f6ab7ef9)" style="fill: #dea584; stroke: #ffffff; stroke-width: 0.5; stroke-linejoin: miter"/>
   </g>
   <g id="patch_9">
    <path d="M 124.646875 290.52486 
L 137.249489 290.52486 
L 137.249489 321.128743 
L 124.646875 321.128743 
z
" clip-path="url(#p32f6ab7ef9)" style="fill: #dea584; stroke: #ffffff; stroke-width: 0.5; stroke-linejoin: miter"/>
   </g>
   <g id="patch_10">
    <path d="M 124.646875 328.779714 
L 139.527012 328.779714 
L 139.527012 359.383597 
L 124.646875 359.383597 
z
" clip-path="url(#p32f6ab7ef9)" style="fill: #3776ab; stroke: #ffffff; stroke-width: 0.5; stroke-linejoin: miter"/>
   </g>
   <g id="patch_11">
    <path d="M 124.646875 367.034568 
L 140.214715 367.034568 
L 140.214715 397.638451 
L 124.646875 397.638451 
z
" clip-path="url(#p32f6ab7ef9)" style="fill: #3776ab; stroke: #ffffff; stroke-width: 0.5; stroke-linejoin: miter"/>
   </g>
   <g id="patch_12">
    <path d="M 124.646875 405.289421 
L 681.014598 405.289421 
L 681.014598 435.893304 
L 124.646875 435.893304 
z
" clip-path="url(#p32f6ab7ef9)" style="fill: #dea584; stroke: #ffffff; stroke-width: 0.5; stroke-linejoin: miter"/>
   </g>
   <g id="patch_13">
    <path d="M 124.646875 443.544275 
L 683.698726 443.544275 
L 683.698726 474.148158 
L 124.646875 474.148158 
z
" clip-path="url(#p32f6ab7ef9)" style="fill: #3776ab; stroke: #ffffff; stroke-width: 0.5; stroke-linejoin: miter"/>
   </g>
   <g id="patch_14">
    <path d="M 124.646875 481.799128 
L 792.848236 481.799128 
L 792.848236 512.403011 
L 124.646875 512.403011 
z
" clip-path="url(#p32f6ab7ef9)" style="fill: #4ecdc4; stroke: #ffffff; stroke-width: 0.5; stroke-linejoin: miter"/>
   </g>
   <g id="patch_15">
    <path d="M 124.646875 534.973375 
L 124.646875 38.425375 
" style="fill: none"/>
   </g>
   <g id="patch_16">
    <path d="M 826.258304 534.973375 
L 826.258304 38.425375 
" style="fill: none"/>
   </g>
   <g id="patch_17">
    <path d="M 124.646875 534.973375 
L 826.258304 534.973375 
" style="fill: none"/>
   </g>
   <g id="patch_18">
    <path d="M 124.646875 38.425375 
L 826.258304 38.425375 
" style="fill: none"/>
   </g>
   <g id="text_22">
    <!-- 205.00 μs -->
    <g style="fill: #262626" transform="translate(138.216179 78.625024) scale(0.09 -0.09)">
     <defs>
      <path id="LiberationSans-2e" d="M 584 0 
L 584 684 
L 1194 684 
L 1194 0 
L 584 0 
z
" transform="scale(0.015625)"/>
      <path id="LiberationSans-3bc" d="M 2694 0 
Q 2688 38 2677 255 
Q 2666 472 2663 594 
L 2650 594 
Q 2463 225 2255 81 
Q 2047 -63 1731 -63 
Q 1475 -63 1287 37 
Q 1100 138 1000 319 
L 988 319 
Q 1000 184 1000 -63 
L 1000 -1228 
L 431 -1228 
L 431 3381 
L 1000 3381 
L 1000 1369 
Q 1000 866 1197 622 
Q 1394 378 1800 378 
Q 2188 378 2411 662 
Q 2634 947 2634 1453 
L 2634 3381 
L 3200 3381 
L 3200 728 
Q 3200 131 3219 0 
L 2694 0 
z
" transform="scale(0.015625)"/>
     </defs>
     <use xlink:href="#LiberationSans-32"/>
     <use xlink:href="#LiberationSans-30" transform="translate(55.615234 0)"/>
     <use xlink:href="#LiberationSans-35" transform="translate(111.230469 0)"/>
     <use xlink:href="#LiberationSans-2e" transform="translate(166.845703 0)"/>
     <use xlink:href="#LiberationSans-30" transform="translate(194.628906 0)"/>
     <use xlink:href="#LiberationSans-30" transform="translate(250.244141 0)"/>
     <use xlink:href="#LiberationSans-20" transform="translate(305.859375 0)"/>
     <use xlink:href="#LiberationSans-3bc" transform="translate(333.642578 0)"/>
     <use xlink:href="#LiberationSans-73" transform="translate(391.259766 0)"/>
    </g>
   </g>
   <g id="text_23">
    <!-- 206.00 μs -->
    <g style="fill: #262626" transform="translate(138.217181 116.879877) scale(0.09 -0.09)">
     <use xlink:href="#LiberationSans-32"/>
     <use xlink:href="#LiberationSans-30" transform="translate(55.615234 0)"/>
     <use xlink:href="#LiberationSans-36" transform="translate(111.230469 0)"/>
     <use xlink:href="#LiberationSans-2e" transform="translate(166.845703 0)"/>
     <use xlink:href="#LiberationSans-30" transform="translate(194.628906 0)"/>
     <use xlink:href="#LiberationSans-30" transform="translate(250.244141 0)"/>
     <use xlink:href="#LiberationSans-20" transform="translate(305.859375 0)"/>
     <use xlink:href="#LiberationSans-3bc" transform="translate(333.642578 0)"/>
     <use xlink:href="#LiberationSans-73" transform="translate(391.259766 0)"/>
    </g>
   </g>
   <g id="text_24">
    <!-- 2.52 ms -->
    <g style="fill: #262626" transform="translate(140.532184 155.134731) scale(0.09 -0.09)">
     <use xlink:href="#LiberationSans-32"/>
     <use xlink:href="#LiberationSans-2e" transform="translate(55.615234 0)"/>
     <use xlink:href="#LiberationSans-35" transform="translate(83.398438 0)"/>
     <use xlink:href="#LiberationSans-32" transform="translate(139.013672 0)"/>
     <use xlink:href="#LiberationSans-20" transform="translate(194.628906 0)"/>
     <use xlink:href="#LiberationSans-6d" transform="translate(222.412109 0)"/>
     <use xlink:href="#LiberationSans-73" transform="translate(305.712891 0)"/>
    </g>
   </g>
   <g id="text_25">
    <!-- 4.11 ms -->
    <g style="fill: #262626" transform="translate(142.124456 193.389585) scale(0.09 -0.09)">
     <use xlink:href="#LiberationSans-34"/>
     <use xlink:href="#LiberationSans-2e" transform="translate(55.615234 0)"/>
     <use xlink:href="#LiberationSans-31" transform="translate(83.398438 0)"/>
     <use xlink:href="#LiberationSans-31" transform="translate(131.638672 0)"/>
     <use xlink:href="#LiberationSans-20" transform="translate(187.253906 0)"/>
     <use xlink:href="#LiberationSans-6d" transform="translate(215.037109 0)"/>
     <use xlink:href="#LiberationSans-73" transform="translate(298.337891 0)"/>
    </g>
   </g>
   <g id="text_26">
    <!-- 4.14 ms -->
    <g style="fill: #262626" transform="translate(142.154381 231.644438) scale(0.09 -0.09)">
     <use xlink:href="#LiberationSans-34"/>
     <use xlink:href="#LiberationSans-2e" transform="translate(55.615234 0)"/>
     <use xlink:href="#LiberationSans-31" transform="translate(83.398438 0)"/>
     <use xlink:href="#LiberationSans-34" transform="translate(139.013672 0)"/>
     <use xlink:href="#LiberationSans-20" transform="translate(194.628906 0)"/>
     <use xlink:href="#LiberationSans-6d" transform="translate(222.412109 0)"/>
     <use xlink:href="#LiberationSans-73" transform="translate(305.712891 0)"/>
    </g>
   </g>
   <g id="text_27">
    <!-- 12.39 ms -->
    <g style="fill: #262626" transform="translate(150.413388 269.899292) scale(0.09 -0.09)">
     <defs>
      <path id="LiberationSans-39" d="M 3256 2291 
Q 3256 1156 2842 546 
Q 2428 -63 1663 -63 
Q 1147 -63 836 154 
Q 525 372 391 856 
L 928 941 
Q 1097 391 1672 391 
Q 2156 391 2422 841 
Q 2688 1291 2700 2125 
Q 2575 1844 2272 1673 
Q 1969 1503 1606 1503 
Q 1013 1503 656 1909 
Q 300 2316 300 2988 
Q 300 3678 687 4073 
Q 1075 4469 1766 4469 
Q 2500 4469 2878 3925 
Q 3256 3381 3256 2291 
z
M 2644 2834 
Q 2644 3366 2400 3689 
Q 2156 4013 1747 4013 
Q 1341 4013 1106 3736 
Q 872 3459 872 2988 
Q 872 2506 1106 2226 
Q 1341 1947 1741 1947 
Q 1984 1947 2193 2058 
Q 2403 2169 2523 2372 
Q 2644 2575 2644 2834 
z
" transform="scale(0.015625)"/>
     </defs>
     <use xlink:href="#LiberationSans-31"/>
     <use xlink:href="#LiberationSans-32" transform="translate(55.615234 0)"/>
     <use xlink:href="#LiberationSans-2e" transform="translate(111.230469 0)"/>
     <use xlink:href="#LiberationSans-33" transform="translate(139.013672 0)"/>
     <use xlink:href="#LiberationSans-39" transform="translate(194.628906 0)"/>
     <use xlink:href="#LiberationSans-20" transform="translate(250.244141 0)"/>
     <use xlink:href="#LiberationSans-6d" transform="translate(278.027344 0)"/>
     <use xlink:href="#LiberationSans-73" transform="translate(361.328125 0)"/>
    </g>
   </g>
   <g id="text_28">
    <!-- 12.59 ms -->
    <g style="fill: #262626" transform="translate(150.613516 308.154146) scale(0.09 -0.09)">
     <use xlink:href="#LiberationSans-31"/>
     <use xlink:href="#LiberationSans-32" transform="translate(55.615234 0)"/>
     <use xlink:href="#LiberationSans-2e" transform="translate(111.230469 0)"/>
     <use xlink:href="#LiberationSans-35" transform="translate(139.013672 0)"/>
     <use xlink:href="#LiberationSans-39" transform="translate(194.628906 0)"/>
     <use xlink:href="#LiberationSans-20" transform="translate(250.244141 0)"/>
     <use xlink:href="#LiberationSans-6d" transform="translate(278.027344 0)"/>
     <use xlink:href="#LiberationSans-73" transform="translate(361.328125 0)"/>
    </g>
   </g>
   <g id="text_29">
    <!-- 14.86 ms -->
    <g style="fill: #262626" transform="translate(152.891039 346.408999) scale(0.09 -0.09)">
     <defs>
      <path id="LiberationSans-38" d="M 3281 1228 
Q 3281 619 2893 278 
Q 2506 -63 1781 -63 
Q 1075 -63 676 271 
Q 278 606 278 1222 
Q 278 1653 525 1947 
Q 772 2241 1156 2303 
L 1156 2316 
Q 797 2400 589 2681 
Q 381 2963 381 3341 
Q 381 3844 757 4156 
Q 1134 4469 1769 4469 
Q 2419 4469 2795 4162 
Q 3172 3856 3172 3334 
Q 3172 2956 2962 2675 
Q 2753 2394 2391 2322 
L 2391 2309 
Q 2813 2241 3047 1952 
Q 3281 1663 3281 1228 
z
M 2588 3303 
Q 2588 4050 1769 4050 
Q 1372 4050 1164 3862 
Q 956 3675 956 3303 
Q 956 2925 1170 2726 
Q 1384 2528 1775 2528 
Q 2172 2528 2380 2711 
Q 2588 2894 2588 3303 
z
M 2697 1281 
Q 2697 1691 2453 1898 
Q 2209 2106 1769 2106 
Q 1341 2106 1100 1882 
Q 859 1659 859 1269 
Q 859 359 1788 359 
Q 2247 359 2472 579 
Q 2697 800 2697 1281 
z
" transform="scale(0.015625)"/>
     </defs>
     <use xlink:href="#LiberationSans-31"/>
     <use xlink:href="#LiberationSans-34" transform="translate(55.615234 0)"/>
     <use xlink:href="#LiberationSans-2e" transform="translate(111.230469 0)"/>
     <use xlink:href="#LiberationSans-38" transform="translate(139.013672 0)"/>
     <use xlink:href="#LiberationSans-36" transform="translate(194.628906 0)"/>
     <use xlink:href="#LiberationSans-20" transform="translate(250.244141 0)"/>
     <use xlink:href="#LiberationSans-6d" transform="translate(278.027344 0)"/>
     <use xlink:href="#LiberationSans-73" transform="translate(361.328125 0)"/>
    </g>
   </g>
   <g id="text_30">
    <!-- 15.55 ms -->
    <g style="fill: #262626" transform="translate(153.578742 384.663853) scale(0.09 -0.09)">
     <use xlink:href="#LiberationSans-31"/>
     <use xlink:href="#LiberationSans-35" transform="translate(55.615234 0)"/>
     <use xlink:href="#LiberationSans-2e" transform="translate(111.230469 0)"/>
     <use xlink:href="#LiberationSans-35" transform="translate(139.013672 0)"/>
     <use xlink:href="#LiberationSans-35" transform="translate(194.628906 0)"/>
     <use xlink:href="#LiberationSans-20" transform="translate(250.244141 0)"/>
     <use xlink:href="#LiberationSans-6d" transform="translate(278.027344 0)"/>
     <use xlink:href="#LiberationSans-73" transform="translate(361.328125 0)"/>
    </g>
   </g>
   <g id="text_31">
    <!-- 555.62 ms -->
    <g style="fill: #262626" transform="translate(694.378626 422.918706) scale(0.09 -0.09)">
     <use xlink:href="#LiberationSans-35"/>
     <use xlink:href="#LiberationSans-35" transform="translate(55.615234 0)"/>
     <use xlink:href="#LiberationSans-35" transform="translate(111.230469 0)"/>
     <use xlink:href="#LiberationSans-2e" transform="translate(166.845703 0)"/>
     <use xlink:href="#LiberationSans-36" transform="translate(194.628906 0)"/>
     <use xlink:href="#LiberationSans-32" transform="translate(250.244141 0)"/>
     <use xlink:href="#LiberationSans-20" transform="translate(305.859375 0)"/>
     <use xlink:href="#LiberationSans-6d" transform="translate(333.642578 0)"/>
     <use xlink:href="#LiberationSans-73" transform="translate(416.943359 0)"/>
    </g>
   </g>
   <g id="text_32">
    <!-- 558.30 ms -->
    <g style="fill: #262626" transform="translate(697.062753 461.17356) scale(0.09 -0.09)">
     <use xlink:href="#LiberationSans-35"/>
     <use xlink:href="#LiberationSans-35" transform="translate(55.615234 0)"/>
     <use xlink:href="#LiberationSans-38" transform="translate(111.230469 0)"/>
     <use xlink:href="#LiberationSans-2e" transform="translate(166.845703 0)"/>
     <use xlink:href="#LiberationSans-33" transform="translate(194.628906 0)"/>
     <use xlink:href="#LiberationSans-30" transform="translate(250.244141 0)"/>
     <use xlink:href="#LiberationSans-20" transform="translate(305.859375 0)"/>
     <use xlink:href="#LiberationSans-6d" transform="translate(333.642578 0)"/>
     <use xlink:href="#LiberationSans-73" transform="translate(416.943359 0)"/>
    </g>
   </g>
   <g id="text_33">
    <!-- 667.30 ms -->
    <g style="fill: #262626" transform="translate(806.212263 499.428414) scale(0.09 -0.09)">
     <use xlink:href="#LiberationSans-36"/>
     <use xlink:href="#LiberationSans-36" transform="translate(55.615234 0)"/>
     <use xlink:href="#LiberationSans-37" transform="translate(111.230469 0)"/>
     <use xlink:href="#LiberationSans-2e" transform="translate(166.845703 0)"/>
     <use xlink:href="#LiberationSans-33" transform="translate(194.628906 0)"/>
     <use xlink:href="#LiberationSans-30" transform="translate(250.244141 0)"/>
     <use xlink:href="#LiberationSans-20" transform="translate(305.859375 0)"/>
     <use xlink:href="#LiberationSans-6d" transform="translate(333.642578 0)"/>
     <use xlink:href="#LiberationSans-73" transform="translate(416.943359 0)"/>
    </g>
   </g>
   <g id="text_34">
    <!-- Benchmark Results: 20 Million Element Computation -->
    <g style="fill: #262626" transform="translate(299.656339 17.345625) scale(0.14 -0.14)">
     <defs>
      <path id="LiberationSans-Bold-42" d="M 4331 1256 
Q 4331 656 3881 328 
Q 3431 0 2631 0 
L 428 0 
L 428 4403 
L 2444 4403 
Q 3250 4403 3664 4123 
Q 4078 3844 4078 3297 
Q 4078 2922 3870 2664 
Q 3663 2406 3238 2316 
Q 3772 2253 4051 1979 
Q 4331 1706 4331 1256 
z
M 3150 3172 
Q 3150 3469 2961 3594 
Q 2772 3719 2400 3719 
L 1350 3719 
L 1350 2628 
L 2406 2628 
Q 2797 2628 2973 2764 
Q 3150 2900 3150 3172 
z
M 3406 1328 
Q 3406 1947 2519 1947 
L 1350 1947 
L 1350 684 
L 2553 684 
Q 2997 684 3201 845 
Q 3406 1006 3406 1328 
z
" transform="scale(0.015625)"/>
      <path id="LiberationSans-Bold-65" d="M 1831 -63 
Q 1069 -63 659 389 
Q 250 841 250 1706 
Q 250 2544 665 2994 
Q 1081 3444 1844 3444 
Q 2572 3444 2956 2961 
Q 3341 2478 3341 1547 
L 3341 1522 
L 1172 1522 
Q 1172 1028 1355 776 
Q 1538 525 1875 525 
Q 2341 525 2463 928 
L 3291 856 
Q 2931 -63 1831 -63 
z
M 1831 2891 
Q 1522 2891 1355 2675 
Q 1188 2459 1178 2072 
L 2491 2072 
Q 2466 2481 2294 2686 
Q 2122 2891 1831 2891 
z
" transform="scale(0.015625)"/>
      <path id="LiberationSans-Bold-6e" d="M 2638 0 
L 2638 1897 
Q 2638 2788 2034 2788 
Q 1716 2788 1520 2514 
Q 1325 2241 1325 1813 
L 1325 0 
L 447 0 
L 447 2625 
Q 447 2897 439 3070 
Q 431 3244 422 3381 
L 1259 3381 
Q 1269 3322 1284 3064 
Q 1300 2806 1300 2709 
L 1313 2709 
Q 1491 3097 1759 3272 
Q 2028 3447 2400 3447 
Q 2938 3447 3225 3115 
Q 3513 2784 3513 2147 
L 3513 0 
L 2638 0 
z
" transform="scale(0.015625)"/>
      <path id="LiberationSans-Bold-63" d="M 1856 -63 
Q 1088 -63 669 395 
Q 250 853 250 1672 
Q 250 2509 672 2976 
Q 1094 3444 1869 3444 
Q 2466 3444 2856 3144 
Q 3247 2844 3347 2316 
L 2463 2272 
Q 2425 2531 2275 2686 
Q 2125 2841 1850 2841 
Q 1172 2841 1172 1706 
Q 1172 538 1863 538 
Q 2113 538 2281 695 
Q 2450 853 2491 1166 
L 3372 1125 
Q 3325 778 3123 506 
Q 2922 234 2594 85 
Q 2266 -63 1856 -63 
z
" transform="scale(0.015625)"/>
      <path id="LiberationSans-Bold-68" d="M 1313 2706 
Q 1491 3094 1759 3269 
Q 2028 3444 2400 3444 
Q 2938 3444 3225 3112 
Q 3513 2781 3513 2144 
L 3513 0 
L 2638 0 
L 2638 1894 
Q 2638 2784 2034 2784 
Q 1716 2784 1520 2511 
Q 1325 2238 1325 1809 
L 1325 0 
L 447 0 
L 447 4638 
L 1325 4638 
L 1325 3372 
Q 1325 3031 1300 2706 
L 1313 2706 
z
" transform="scale(0.015625)"/>
      <path id="LiberationSans-Bold-6d" d="M 2438 0 
L 2438 1897 
Q 2438 2788 1925 2788 
Q 1659 2788 1492 2516 
Q 1325 2244 1325 1813 
L 1325 0 
L 447 0 
L 447 2625 
Q 447 2897 439 3070 
Q 431 3244 422 3381 
L 1259 3381 
Q 1269 3322 1284 3064 
Q 1300 2806 1300 2709 
L 1313 2709 
Q 1475 3097 1717 3272 
Q 1959 3447 2297 3447 
Q 3072 3447 3238 2709 
L 3256 2709 
Q 3428 3103 3668 3275 
Q 3909 3447 4281 3447 
Q 4775 3447 5034 3111 
Q 5294 2775 5294 2147 
L 5294 0 
L 4422 0 
L 4422 1897 
Q 4422 2788 3909 2788 
Q 3653 2788 3489 2539 
Q 3325 2291 3309 1853 
L 3309 0 
L 2438 0 
z
" transform="scale(0.015625)"/>
      <path id="LiberationSans-Bold-61" d="M 1228 -63 
Q 738 -63 463 204 
Q 188 472 188 956 
Q 188 1481 530 1756 
Q 872 2031 1522 2038 
L 2250 2050 
L 2250 2222 
Q 2250 2553 2134 2714 
Q 2019 2875 1756 2875 
Q 1513 2875 1398 2764 
Q 1284 2653 1256 2397 
L 341 2441 
Q 425 2934 792 3189 
Q 1159 3444 1794 3444 
Q 2434 3444 2781 3128 
Q 3128 2813 3128 2231 
L 3128 1000 
Q 3128 716 3192 608 
Q 3256 500 3406 500 
Q 3506 500 3600 519 
L 3600 44 
Q 3522 25 3459 9 
Q 3397 -6 3334 -15 
Q 3272 -25 3201 -31 
Q 3131 -38 3038 -38 
Q 2706 -38 2548 125 
Q 2391 288 2359 603 
L 2341 603 
Q 1972 -63 1228 -63 
z
M 2250 1566 
L 1800 1559 
Q 1494 1547 1366 1492 
Q 1238 1438 1170 1325 
Q 1103 1213 1103 1025 
Q 1103 784 1214 667 
Q 1325 550 1509 550 
Q 1716 550 1886 662 
Q 2056 775 2153 973 
Q 2250 1172 2250 1394 
L 2250 1566 
z
" transform="scale(0.015625)"/>
      <path id="LiberationSans-Bold-72" d="M 447 0 
L 447 2588 
Q 447 2866 439 3052 
Q 431 3238 422 3381 
L 1259 3381 
Q 1269 3325 1284 3039 
Q 1300 2753 1300 2659 
L 1313 2659 
Q 1441 3016 1541 3161 
Q 1641 3306 1778 3376 
Q 1916 3447 2122 3447 
Q 2291 3447 2394 3400 
L 2394 2666 
Q 2181 2713 2019 2713 
Q 1691 2713 1508 2447 
Q 1325 2181 1325 1659 
L 1325 0 
L 447 0 
z
" transform="scale(0.015625)"/>
      <path id="LiberationSans-Bold-6b" d="M 2606 0 
L 1703 1531 
L 1325 1269 
L 1325 0 
L 447 0 
L 447 4638 
L 1325 4638 
L 1325 1981 
L 2531 3381 
L 3475 3381 
L 2288 2063 
L 3566 0 
L 2606 0 
z
" transform="scale(0.015625)"/>
      <path id="LiberationSans-Bold-20" transform="scale(0.015625)"/>
      <path id="LiberationSans-Bold-52" d="M 3453 0 
L 2431 1672 
L 1350 1672 
L 1350 0 
L 428 0 
L 428 4403 
L 2628 4403 
Q 3416 4403 3844 4064 
Q 4272 3725 4272 3091 
Q 4272 2628 4009 2292 
Q 3747 1956 3300 1850 
L 4491 0 
L 3453 0 
z
M 3344 3053 
Q 3344 3688 2531 3688 
L 1350 3688 
L 1350 2388 
L 2556 2388 
Q 2944 2388 3144 2563 
Q 3344 2738 3344 3053 
z
" transform="scale(0.015625)"/>
      <path id="LiberationSans-Bold-73" d="M 3297 988 
Q 3297 497 2895 217 
Q 2494 -63 1784 -63 
Q 1088 -63 717 157 
Q 347 378 225 844 
L 997 959 
Q 1063 719 1223 619 
Q 1384 519 1784 519 
Q 2153 519 2322 612 
Q 2491 706 2491 906 
Q 2491 1069 2355 1164 
Q 2219 1259 1894 1325 
Q 1150 1472 890 1598 
Q 631 1725 495 1926 
Q 359 2128 359 2422 
Q 359 2906 732 3176 
Q 1106 3447 1791 3447 
Q 2394 3447 2761 3212 
Q 3128 2978 3219 2534 
L 2441 2453 
Q 2403 2659 2256 2761 
Q 2109 2863 1791 2863 
Q 1478 2863 1322 2783 
Q 1166 2703 1166 2516 
Q 1166 2369 1286 2283 
Q 1406 2197 1691 2141 
Q 2088 2059 2395 1973 
Q 2703 1888 2889 1769 
Q 3075 1650 3186 1464 
Q 3297 1278 3297 988 
z
" transform="scale(0.015625)"/>
      <path id="LiberationSans-Bold-75" d="M 1275 3381 
L 1275 1484 
Q 1275 594 1875 594 
Q 2194 594 2389 867 
Q 2584 1141 2584 1569 
L 2584 3381 
L 3463 3381 
L 3463 756 
Q 3463 325 3488 0 
L 2650 0 
Q 2613 450 2613 672 
L 2597 672 
Q 2422 288 2151 112 
Q 1881 -63 1509 -63 
Q 972 -63 684 267 
Q 397 597 397 1234 
L 397 3381 
L 1275 3381 
z
" transform="scale(0.015625)"/>
      <path id="LiberationSans-Bold-6c" d="M 447 0 
L 447 4638 
L 1325 4638 
L 1325 0 
L 447 0 
z
" transform="scale(0.015625)"/>
      <path id="LiberationSans-Bold-74" d="M 1313 -56 
Q 925 -56 715 155 
Q 506 366 506 794 
L 506 2788 
L 78 2788 
L 78 3381 
L 550 3381 
L 825 4175 
L 1375 4175 
L 1375 3381 
L 2016 3381 
L 2016 2788 
L 1375 2788 
L 1375 1031 
Q 1375 784 1469 667 
Q 1563 550 1759 550 
Q 1863 550 2053 594 
L 2053 50 
Q 1728 -56 1313 -56 
z
" transform="scale(0.015625)"/>
      <path id="LiberationSans-Bold-3a" d="M 616 2350 
L 616 3231 
L 1516 3231 
L 1516 2350 
L 616 2350 
z
M 616 0 
L 616 878 
L 1516 878 
L 1516 0 
L 616 0 
z
" transform="scale(0.015625)"/>
      <path id="LiberationSans-Bold-32" d="M 222 0 
L 222 609 
Q 394 988 711 1347 
Q 1028 1706 1509 2097 
Q 1972 2472 2158 2715 
Q 2344 2959 2344 3194 
Q 2344 3769 1766 3769 
Q 1484 3769 1336 3617 
Q 1188 3466 1144 3163 
L 259 3213 
Q 334 3825 717 4147 
Q 1100 4469 1759 4469 
Q 2472 4469 2853 4144 
Q 3234 3819 3234 3231 
Q 3234 2922 3112 2672 
Q 2991 2422 2800 2211 
Q 2609 2000 2376 1815 
Q 2144 1631 1925 1456 
Q 1706 1281 1526 1103 
Q 1347 925 1259 722 
L 3303 722 
L 3303 0 
L 222 0 
z
" transform="scale(0.015625)"/>
      <path id="LiberationSans-Bold-30" d="M 3297 2203 
Q 3297 1088 2914 512 
Q 2531 -63 1766 -63 
Q 253 -63 253 2203 
Q 253 2994 418 3494 
Q 584 3994 915 4231 
Q 1247 4469 1791 4469 
Q 2572 4469 2934 3903 
Q 3297 3338 3297 2203 
z
M 2416 2203 
Q 2416 2813 2356 3150 
Q 2297 3488 2165 3634 
Q 2034 3781 1784 3781 
Q 1519 3781 1383 3632 
Q 1247 3484 1189 3148 
Q 1131 2813 1131 2203 
Q 1131 1600 1192 1261 
Q 1253 922 1386 775 
Q 1519 628 1772 628 
Q 2022 628 2158 783 
Q 2294 938 2355 1278 
Q 2416 1619 2416 2203 
z
" transform="scale(0.015625)"/>
      <path id="LiberationSans-Bold-4d" d="M 4084 0 
L 4084 2669 
Q 4084 2759 4086 2850 
Q 4088 2941 4116 3628 
Q 3894 2788 3788 2456 
L 2994 0 
L 2338 0 
L 1544 2456 
L 1209 3628 
Q 1247 2903 1247 2669 
L 1247 0 
L 428 0 
L 428 4403 
L 1663 4403 
L 2450 1941 
L 2519 1703 
L 2669 1113 
L 2866 1819 
L 3675 4403 
L 4903 4403 
L 4903 0 
L 4084 0 
z
" transform="scale(0.015625)"/>
      <path id="LiberationSans-Bold-69" d="M 447 3991 
L 447 4638 
L 1325 4638 
L 1325 3991 
L 447 3991 
z
M 447 0 
L 447 3381 
L 1325 3381 
L 1325 0 
L 447 0 
z
" transform="scale(0.015625)"/>
      <path id="LiberationSans-Bold-6f" d="M 3659 1694 
Q 3659 872 3203 404 
Q 2747 -63 1941 -63 
Q 1150 -63 700 406 
Q 250 875 250 1694 
Q 250 2509 700 2976 
Q 1150 3444 1959 3444 
Q 2788 3444 3223 2992 
Q 3659 2541 3659 1694 
z
M 2741 1694 
Q 2741 2297 2544 2569 
Q 2347 2841 1972 2841 
Q 1172 2841 1172 1694 
Q 1172 1128 1367 833 
Q 1563 538 1931 538 
Q 2741 538 2741 1694 
z
" transform="scale(0.015625)"/>
      <path id="LiberationSans-Bold-45" d="M 428 0 
L 428 4403 
L 3891 4403 
L 3891 3691 
L 1350 3691 
L 1350 2584 
L 3700 2584 
L 3700 1872 
L 1350 1872 
L 1350 713 
L 4019 713 
L 4019 0 
L 428 0 
z
" transform="scale(0.015625)"/>
      <path id="LiberationSans-Bold-43" d="M 2484 663 
Q 3319 663 3644 1500 
L 4447 1197 
Q 4188 559 3686 248 
Q 3184 -63 2484 -63 
Q 1422 -63 842 539 
Q 263 1141 263 2222 
Q 263 3306 822 3887 
Q 1381 4469 2444 4469 
Q 3219 4469 3706 4158 
Q 4194 3847 4391 3244 
L 3578 3022 
Q 3475 3353 3173 3548 
Q 2872 3744 2463 3744 
Q 1838 3744 1514 3356 
Q 1191 2969 1191 2222 
Q 1191 1463 1523 1063 
Q 1856 663 2484 663 
z
" transform="scale(0.015625)"/>
      <path id="LiberationSans-Bold-70" d="M 3647 1706 
Q 3647 859 3308 398 
Q 2969 -63 2350 -63 
Q 1994 -63 1730 92 
Q 1466 247 1325 538 
L 1306 538 
Q 1325 444 1325 -31 
L 1325 -1328 
L 447 -1328 
L 447 2603 
Q 447 3081 422 3381 
L 1275 3381 
Q 1291 3325 1302 3159 
Q 1313 2994 1313 2831 
L 1325 2831 
Q 1622 3453 2406 3453 
Q 2997 3453 3322 2998 
Q 3647 2544 3647 1706 
z
M 2731 1706 
Q 2731 2844 2034 2844 
Q 1684 2844 1498 2537 
Q 1313 2231 1313 1681 
Q 1313 1134 1498 836 
Q 1684 538 2028 538 
Q 2731 538 2731 1706 
z
" transform="scale(0.015625)"/>
     </defs>
     <use xlink:href="#LiberationSans-Bold-42"/>
     <use xlink:href="#LiberationSans-Bold-65" transform="translate(72.216797 0)"/>
     <use xlink:href="#LiberationSans-Bold-6e" transform="translate(127.832031 0)"/>
     <use xlink:href="#LiberationSans-Bold-63" transform="translate(188.916016 0)"/>
     <use xlink:href="#LiberationSans-Bold-68" transform="translate(244.53125 0)"/>
     <use xlink:href="#LiberationSans-Bold-6d" transform="translate(305.615234 0)"/>
     <use xlink:href="#LiberationSans-Bold-61" transform="translate(394.53125 0)"/>
     <use xlink:href="#LiberationSans-Bold-72" transform="translate(450.146484 0)"/>
     <use xlink:href="#LiberationSans-Bold-6b" transform="translate(489.0625 0)"/>
     <use xlink:href="#LiberationSans-Bold-20" transform="translate(544.677734 0)"/>
     <use xlink:href="#LiberationSans-Bold-52" transform="translate(572.460938 0)"/>
     <use xlink:href="#LiberationSans-Bold-65" transform="translate(644.677734 0)"/>
     <use xlink:href="#LiberationSans-Bold-73" transform="translate(700.292969 0)"/>
     <use xlink:href="#LiberationSans-Bold-75" transform="translate(755.908203 0)"/>
     <use xlink:href="#LiberationSans-Bold-6c" transform="translate(816.992188 0)"/>
     <use xlink:href="#LiberationSans-Bold-74" transform="translate(844.775391 0)"/>
     <use xlink:href="#LiberationSans-Bold-73" transform="translate(878.076172 0)"/>
     <use xlink:href="#LiberationSans-Bold-3a" transform="translate(933.691406 0)"/>
     <use xlink:href="#LiberationSans-Bold-20" transform="translate(966.992188 0)"/>
     <use xlink:href="#LiberationSans-Bold-32" transform="translate(994.775391 0)"/>
     <use xlink:href="#LiberationSans-Bold-30" transform="translate(1050.390625 0)"/>
     <use xlink:href="#LiberationSans-Bold-20" transform="translate(1106.005859 0)"/>
     <use xlink:href="#LiberationSans-Bold-4d" transform="translate(1133.789062 0)"/>
     <use xlink:href="#LiberationSans-Bold-69" transform="translate(1217.089844 0)"/>
     <use xlink:href="#LiberationSans-Bold-6c" transform="translate(1244.873047 0)"/>
     <use xlink:href="#LiberationSans-Bold-6c" transform="translate(1272.65625 0)"/>
     <use xlink:href="#LiberationSans-Bold-69" transform="translate(1300.439453 0)"/>
     <use xlink:href="#LiberationSans-Bold-6f" transform="translate(1328.222656 0)"/>
     <use xlink:href="#LiberationSans-Bold-6e" transform="translate(1389.306641 0)"/>
     <use xlink:href="#LiberationSans-Bold-20" transform="translate(1450.390625 0)"/>
     <use xlink:href="#LiberationSans-Bold-45" transform="translate(1478.173828 0)"/>
     <use xlink:href="#LiberationSans-Bold-6c" transform="translate(1544.873047 0)"/>
     <use xlink:href="#LiberationSans-Bold-65" transform="translate(1572.65625 0)"/>
     <use xlink:href="#LiberationSans-Bold-6d" transform="translate(1628.271484 0)"/>
     <use xlink:href="#LiberationSans-Bold-65" transform="translate(1717.1875 0)"/>
     <use xlink:href="#LiberationSans-Bold-6e" transform="translate(1772.802734 0)"/>
     <use xlink:href="#LiberationSans-Bold-74" transform="translate(1833.886719 0)"/>
     <use xlink:href="#LiberationSans-Bold-20" transform="translate(1867.1875 0)"/>
     <use xlink:href="#LiberationSans-Bold-43" transform="translate(1894.970703 0)"/>
     <use xlink:href="#LiberationSans-Bold-6f" transform="translate(1967.1875 0)"/>
     <use xlink:href="#LiberationSans-Bold-6d" transform="translate(2028.271484 0)"/>
     <use xlink:href="#LiberationSans-Bold-70" transform="translate(2117.1875 0)"/>
     <use xlink:href="#LiberationSans-Bold-75" transform="translate(2178.271484 0)"/>
     <use xlink:href="#LiberationSans-Bold-74" transform="translate(2239.355469 0)"/>
     <use xlink:href="#LiberationSans-Bold-61" transform="translate(2272.65625 0)"/>
     <use xlink:href="#LiberationSans-Bold-74" transform="translate(2328.271484 0)"/>
     <use xlink:href="#LiberationSans-Bold-69" transform="translate(2361.572266 0)"/>
     <use xlink:href="#LiberationSans-Bold-6f" transform="translate(2389.355469 0)"/>
     <use xlink:href="#LiberationSans-Bold-6e" transform="translate(2450.439453 0)"/>
    </g>
    <!-- (Lower is Better) -->
    <g style="fill: #262626" transform="translate(420.224777 32.425375) scale(0.14 -0.14)">
     <defs>
      <path id="LiberationSans-Bold-28" d="M 1247 -1328 
Q 756 -622 537 81 
Q 319 784 319 1659 
Q 319 2531 537 3232 
Q 756 3934 1247 4638 
L 2125 4638 
Q 1631 3925 1407 3219 
Q 1184 2513 1184 1656 
Q 1184 803 1406 101 
Q 1628 -600 2125 -1328 
L 1247 -1328 
z
" transform="scale(0.015625)"/>
      <path id="LiberationSans-Bold-4c" d="M 428 0 
L 428 4403 
L 1350 4403 
L 1350 713 
L 3713 713 
L 3713 0 
L 428 0 
z
" transform="scale(0.015625)"/>
      <path id="LiberationSans-Bold-77" d="M 4103 0 
L 3175 0 
L 2638 2063 
Q 2600 2203 2491 2756 
L 2328 2056 
L 1784 0 
L 856 0 
L -19 3381 
L 806 3381 
L 1363 797 
L 1406 1028 
L 1484 1394 
L 2016 3381 
L 2956 3381 
L 3475 1394 
Q 3519 1231 3603 797 
L 3691 1209 
L 4178 3381 
L 4991 3381 
L 4103 0 
z
" transform="scale(0.015625)"/>
      <path id="LiberationSans-Bold-29" d="M 6 -1328 
Q 506 -597 726 101 
Q 947 800 947 1656 
Q 947 2516 722 3223 
Q 497 3931 6 4638 
L 884 4638 
Q 1378 3928 1595 3225 
Q 1813 2522 1813 1659 
Q 1813 791 1595 87 
Q 1378 -616 884 -1328 
L 6 -1328 
z
" transform="scale(0.015625)"/>
     </defs>
     <use xlink:href="#LiberationSans-Bold-28"/>
     <use xlink:href="#LiberationSans-Bold-4c" transform="translate(33.300781 0)"/>
     <use xlink:href="#LiberationSans-Bold-6f" transform="translate(94.384766 0)"/>
     <use xlink:href="#LiberationSans-Bold-77" transform="translate(155.46875 0)"/>
     <use xlink:href="#LiberationSans-Bold-65" transform="translate(233.251953 0)"/>
     <use xlink:href="#LiberationSans-Bold-72" transform="translate(288.867188 0)"/>
     <use xlink:href="#LiberationSans-Bold-20" transform="translate(327.783203 0)"/>
     <use xlink:href="#LiberationSans-Bold-69" transform="translate(355.566406 0)"/>
     <use xlink:href="#LiberationSans-Bold-73" transform="translate(383.349609 0)"/>
     <use xlink:href="#LiberationSans-Bold-20" transform="translate(438.964844 0)"/>
     <use xlink:href="#LiberationSans-Bold-42" transform="translate(466.748047 0)"/>
     <use xlink:href="#LiberationSans-Bold-65" transform="translate(538.964844 0)"/>
     <use xlink:href="#LiberationSans-Bold-74" transform="translate(594.580078 0)"/>
     <use xlink:href="#LiberationSans-Bold-74" transform="translate(627.880859 0)"/>
     <use xlink:href="#LiberationSans-Bold-65" transform="translate(661.181641 0)"/>
     <use xlink:href="#LiberationSans-Bold-72" transform="translate(716.796875 0)"/>
     <use xlink:href="#LiberationSans-Bold-29" transform="translate(755.712891 0)"/>
    </g>
   </g>
   <g id="legend_1">
    <g id="patch_19">
     <path d="M 733.131741 480.93275 
L 753.131741 480.93275 
L 753.131741 473.93275 
L 733.131741 473.93275 
z
" style="fill: #3776ab; stroke: #3776ab; stroke-linejoin: miter"/>
    </g>
    <g id="text_35">
     <!-- Numba CPU -->
     <g style="fill: #262626" transform="translate(761.131741 480.93275) scale(0.1 -0.1)">
      <defs>
       <path id="LiberationSans-4e" d="M 3381 0 
L 1025 3750 
L 1041 3447 
L 1056 2925 
L 1056 0 
L 525 0 
L 525 4403 
L 1219 4403 
L 3600 628 
Q 3563 1241 3563 1516 
L 3563 4403 
L 4100 4403 
L 4100 0 
L 3381 0 
z
" transform="scale(0.015625)"/>
       <path id="LiberationSans-43" d="M 2475 3981 
Q 1744 3981 1337 3511 
Q 931 3041 931 2222 
Q 931 1413 1354 920 
Q 1778 428 2500 428 
Q 3425 428 3891 1344 
L 4378 1100 
Q 4106 531 3614 234 
Q 3122 -63 2472 -63 
Q 1806 -63 1320 214 
Q 834 491 579 1005 
Q 325 1519 325 2222 
Q 325 3275 894 3872 
Q 1463 4469 2469 4469 
Q 3172 4469 3644 4194 
Q 4116 3919 4338 3378 
L 3772 3191 
Q 3619 3575 3280 3778 
Q 2941 3981 2475 3981 
z
" transform="scale(0.015625)"/>
       <path id="LiberationSans-50" d="M 3931 3078 
Q 3931 2453 3523 2084 
Q 3116 1716 2416 1716 
L 1122 1716 
L 1122 0 
L 525 0 
L 525 4403 
L 2378 4403 
Q 3119 4403 3525 4056 
Q 3931 3709 3931 3078 
z
M 3331 3072 
Q 3331 3925 2306 3925 
L 1122 3925 
L 1122 2188 
L 2331 2188 
Q 3331 2188 3331 3072 
z
" transform="scale(0.015625)"/>
       <path id="LiberationSans-55" d="M 2284 -63 
Q 1744 -63 1341 134 
Q 938 331 716 706 
Q 494 1081 494 1600 
L 494 4403 
L 1091 4403 
L 1091 1650 
Q 1091 1047 1397 734 
Q 1703 422 2281 422 
Q 2875 422 3204 745 
Q 3534 1069 3534 1691 
L 3534 4403 
L 4128 4403 
L 4128 1656 
Q 4128 1122 3901 734 
Q 3675 347 3261 142 
Q 2847 -63 2284 -63 
z
" transform="scale(0.015625)"/>
      </defs>
      <use xlink:href="#LiberationSans-4e"/>
      <use xlink:href="#LiberationSans-75" transform="translate(72.216797 0)"/>
      <use xlink:href="#LiberationSans-6d" transform="translate(127.832031 0)"/>
      <use xlink:href="#LiberationSans-62" transform="translate(211.132812 0)"/>
      <use xlink:href="#LiberationSans-61" transform="translate(266.748047 0)"/>
      <use xlink:href="#LiberationSans-20" transform="translate(322.363281 0)"/>
      <use xlink:href="#LiberationSans-43" transform="translate(350.146484 0)"/>
      <use xlink:href="#LiberationSans-50" transform="translate(422.363281 0)"/>
      <use xlink:href="#LiberationSans-55" transform="translate(489.0625 0)"/>
     </g>
    </g>
    <g id="patch_20">
     <path d="M 733.131741 495.254625 
L 753.131741 495.254625 
L 753.131741 488.254625 
L 733.131741 488.254625 
z
" style="fill: #dea584; stroke: #dea584; stroke-linejoin: miter"/>
    </g>
    <g id="text_36">
     <!-- Rust CPU -->
     <g style="fill: #262626" transform="translate(761.131741 495.254625) scale(0.1 -0.1)">
      <defs>
       <path id="LiberationSans-52" d="M 3638 0 
L 2494 1828 
L 1122 1828 
L 1122 0 
L 525 0 
L 525 4403 
L 2597 4403 
Q 3341 4403 3745 4070 
Q 4150 3738 4150 3144 
Q 4150 2653 3864 2318 
Q 3578 1984 3075 1897 
L 4325 0 
L 3638 0 
z
M 3550 3138 
Q 3550 3522 3289 3723 
Q 3028 3925 2538 3925 
L 1122 3925 
L 1122 2300 
L 2563 2300 
Q 3034 2300 3292 2520 
Q 3550 2741 3550 3138 
z
" transform="scale(0.015625)"/>
      </defs>
      <use xlink:href="#LiberationSans-52"/>
      <use xlink:href="#LiberationSans-75" transform="translate(72.216797 0)"/>
      <use xlink:href="#LiberationSans-73" transform="translate(127.832031 0)"/>
      <use xlink:href="#LiberationSans-74" transform="translate(177.832031 0)"/>
      <use xlink:href="#LiberationSans-20" transform="translate(205.615234 0)"/>
      <use xlink:href="#LiberationSans-43" transform="translate(233.398438 0)"/>
      <use xlink:href="#LiberationSans-50" transform="translate(305.615234 0)"/>
      <use xlink:href="#LiberationSans-55" transform="translate(372.314453 0)"/>
     </g>
    </g>
    <g id="patch_21">
     <path d="M 733.131741 509.5765 
L 753.131741 509.5765 
L 753.131741 502.5765 
L 733.131741 502.5765 
z
" style="fill: #76b900; stroke: #76b900; stroke-linejoin: miter"/>
    </g>
    <g id="text_37">
     <!-- CUDA GPU -->
     <g style="fill: #262626" transform="translate(761.131741 509.5765) scale(0.1 -0.1)">
      <defs>
       <path id="LiberationSans-44" d="M 4316 2247 
Q 4316 1566 4050 1055 
Q 3784 544 3296 272 
Q 2809 0 2172 0 
L 525 0 
L 525 4403 
L 1981 4403 
Q 3100 4403 3708 3842 
Q 4316 3281 4316 2247 
z
M 3716 2247 
Q 3716 3066 3267 3495 
Q 2819 3925 1969 3925 
L 1122 3925 
L 1122 478 
L 2103 478 
Q 2588 478 2955 690 
Q 3322 903 3519 1303 
Q 3716 1703 3716 2247 
z
" transform="scale(0.015625)"/>
       <path id="LiberationSans-41" d="M 3647 0 
L 3144 1288 
L 1138 1288 
L 631 0 
L 13 0 
L 1809 4403 
L 2488 4403 
L 4256 0 
L 3647 0 
z
M 2141 3953 
L 2113 3866 
Q 2034 3606 1881 3200 
L 1319 1753 
L 2966 1753 
L 2400 3206 
Q 2313 3422 2225 3694 
L 2141 3953 
z
" transform="scale(0.015625)"/>
       <path id="LiberationSans-47" d="M 322 2222 
Q 322 3294 897 3881 
Q 1472 4469 2513 4469 
Q 3244 4469 3700 4222 
Q 4156 3975 4403 3431 
L 3834 3263 
Q 3647 3638 3317 3809 
Q 2988 3981 2497 3981 
Q 1734 3981 1331 3520 
Q 928 3059 928 2222 
Q 928 1388 1356 905 
Q 1784 422 2541 422 
Q 2972 422 3345 553 
Q 3719 684 3950 909 
L 3950 1703 
L 2634 1703 
L 2634 2203 
L 4500 2203 
L 4500 684 
Q 4150 328 3642 132 
Q 3134 -63 2541 -63 
Q 1850 -63 1350 212 
Q 850 488 586 1005 
Q 322 1522 322 2222 
z
" transform="scale(0.015625)"/>
      </defs>
      <use xlink:href="#LiberationSans-43"/>
      <use xlink:href="#LiberationSans-55" transform="translate(72.216797 0)"/>
      <use xlink:href="#LiberationSans-44" transform="translate(144.433594 0)"/>
      <use xlink:href="#LiberationSans-41" transform="translate(216.650391 0)"/>
      <use xlink:href="#LiberationSans-20" transform="translate(277.849609 0)"/>
      <use xlink:href="#LiberationSans-47" transform="translate(305.632812 0)"/>
      <use xlink:href="#LiberationSans-50" transform="translate(383.416016 0)"/>
      <use xlink:href="#LiberationSans-55" transform="translate(450.115234 0)"/>
     </g>
    </g>
    <g id="patch_22">
     <path d="M 733.131741 523.898375 
L 753.131741 523.898375 
L 753.131741 516.898375 
L 733.131741 516.898375 
z
" style="fill: #4ecdc4; stroke: #4ecdc4; stroke-linejoin: miter"/>
    </g>
    <g id="text_38">
     <!-- NumPy -->
     <g style="fill: #262626" transform="translate(761.131741 523.898375) scale(0.1 -0.1)">
      <use xlink:href="#LiberationSans-4e"/>
      <use xlink:href="#LiberationSans-75" transform="translate(72.216797 0)"/>
      <use xlink:href="#LiberationSans-6d" transform="translate(127.832031 0)"/>
      <use xlink:href="#LiberationSans-50" transform="translate(211.132812 0)"/>
      <use xlink:href="#LiberationSans-79" transform="translate(277.832031 0)"/>
     </g>
    </g>
   </g>
  </g>
 </g>
 <defs>
  <clipPath id="p32f6ab7ef9">
   <rect x="124.646875" y="38.425375" width="701.611429" height="496.548"/>
  </clipPath>
 </defs>
</svg>
